/* XPM */
static char *result[] = {
/* columns rows colors chars-per-pixel */
"64 64 244 2 ",
"   c #11151B",
".  c #192617",
"X  c #1C3209",
"o  c #243B0E",
"O  c #161B24",
"+  c #1B2529",
"@  c #1D2634",
"#  c #253329",
"$  c #212B37",
"%  c #263439",
"&  c #252B2F",
"*  c #1B4B01",
"=  c #2B5105",
"-  c #357903",
";  c #2E6B01",
":  c #3A6F2E",
">  c #2A5B13",
",  c #4D7A2C",
"<  c #466223",
"1  c #1D2A47",
"2  c #232D43",
"3  c #2B354D",
"4  c #283648",
"5  c #343B48",
"6  c #2C3A55",
"7  c #2C3A59",
"8  c #293653",
"9  c #323E5B",
"0  c #323C55",
"q  c #2D3D61",
"w  c #3A445D",
"e  c #364359",
"r  c #334153",
"t  c #2D416A",
"y  c #344363",
"u  c #3B4563",
"i  c #34456B",
"p  c #3D4B6D",
"a  c #3A4868",
"s  c #384C76",
"d  c #3E5279",
"f  c #3D6446",
"g  c #4A4E4F",
"h  c #51734E",
"j  c #424D69",
"k  c #48536A",
"l  c #445274",
"z  c #495675",
"x  c #44547B",
"c  c #4C5A7C",
"v  c #4A577A",
"b  c #515D7D",
"n  c #535C74",
"m  c #4E556B",
"M  c #5A6D7B",
"N  c #6C6C71",
"B  c #6A7B56",
"V  c #378601",
"C  c #2F8100",
"Z  c #468A03",
"A  c #489802",
"S  c #599907",
"D  c #538B18",
"F  c #5A9616",
"G  c #528D09",
"H  c #629C18",
"J  c #609E0A",
"K  c #58A803",
"L  c #5AB602",
"P  c #4CA701",
"I  c #67A80A",
"U  c #6BB607",
"Y  c #75B909",
"T  c #65A31C",
"R  c #6BAB1C",
"E  c #69A716",
"W  c #76B916",
"Q  c #74AF15",
"!  c #588927",
"~  c #5C9422",
"^  c #649926",
"/  c #669836",
"(  c #789D28",
")  c #6BA624",
"_  c #73AB28",
"`  c #7AB527",
"'  c #77A937",
"]  c #7CB436",
"[  c #6DA331",
"{  c #7BC109",
"}  c #6F954C",
"|  c #7CA54B",
" . c #7AA457",
".. c #7CB340",
"X. c #70906F",
"o. c #6A9354",
"O. c #83BA29",
"+. c #85B839",
"@. c #8FB53A",
"#. c #A3B83B",
"$. c #85BA0C",
"%. c #84C309",
"&. c #8FC917",
"*. c #89C42B",
"=. c #98CC32",
"-. c #88B845",
";. c #94BB45",
":. c #84AB58",
">. c #89B756",
",. c #98BD55",
"<. c #87AB47",
"1. c #849373",
"2. c #88AD68",
"3. c #8CB368",
"4. c #93B969",
"5. c #95BA75",
"6. c #8FB370",
"7. c #96A956",
"8. c #98C648",
"9. c #99C851",
"0. c #8DC147",
"q. c #A9D44A",
"w. c #A3CA57",
"e. c #A6CE55",
"r. c #9BC668",
"t. c #9CC378",
"y. c #A3CC68",
"u. c #A2C678",
"i. c #AAD178",
"p. c #B1D36D",
"a. c #BAE05F",
"s. c #3C5485",
"d. c #455984",
"f. c #4C5C83",
"g. c #465B89",
"h. c #525E81",
"j. c #4D618A",
"k. c #556284",
"l. c #5A6585",
"z. c #53648B",
"x. c #5C6A8C",
"c. c #5A668A",
"v. c #4C6493",
"b. c #486599",
"n. c #556996",
"m. c #5B6B93",
"M. c #526B9B",
"N. c #5A6E9B",
"B. c #546692",
"V. c #5D719A",
"C. c #646C8B",
"Z. c #637194",
"A. c #6C7A9C",
"S. c #677598",
"D. c #757D99",
"F. c #6E768A",
"G. c #546DA3",
"H. c #5C73A4",
"J. c #5874A9",
"K. c #5B7BB6",
"L. c #4B6AA2",
"P. c #6275A3",
"I. c #6B7CA4",
"U. c #647BAC",
"Y. c #677BA8",
"T. c #637EB2",
"R. c #747EA1",
"E. c #768299",
"W. c #6C80AD",
"Q. c #7483AC",
"!. c #7A85A7",
"~. c #6C83B4",
"^. c #6883B9",
"/. c #7D8DB5",
"(. c #748CBC",
"). c #7588B4",
"_. c #7D91BC",
"`. c #7990A3",
"'. c #5C81BB",
"]. c #5D84C4",
"[. c #6989C4",
"{. c #738EC2",
"}. c #768FC3",
"|. c #7C93C4",
" X c #7994C8",
".X c #7A9BD4",
"XX c #858A94",
"oX c #93AE8B",
"OX c #838CAB",
"+X c #8294BD",
"@X c #8894B6",
"#X c #979DB9",
"$X c #8F95AB",
"%X c #9BA2B9",
"&X c #9AACA7",
"*X c #A1A6B6",
"=X c #A9BC8E",
"-X c #A6C888",
";X c #ACCA94",
":X c #B5D597",
">X c #B2D48C",
",X c #B8C9A6",
"<X c #C6DB94",
"1X c #8296C3",
"2X c #8C9DC4",
"3X c #889DCA",
"4X c #849ED1",
"5X c #909EC0",
"6X c #8DA2CC",
"7X c #8FA0C7",
"8X c #92A4CB",
"9X c #99A6CA",
"0X c #8CA5D4",
"qX c #89A6D8",
"wX c #95AAD4",
"eX c #97ABD7",
"rX c #9BB1DC",
"tX c #A4ADC8",
"yX c #ABB3C9",
"uX c #B3B6C8",
"iX c #A3AED2",
"pX c #A4B5DB",
"aX c #AAB7D9",
"sX c #B4BBD8",
"dX c #9AB4E2",
"fX c #8FAEE3",
"gX c #A7BCE6",
"hX c #B4BFE3",
"jX c #BDC1D4",
"kX c #ADC2E9",
"lX c #B9C6E6",
"zX c #BACEF4",
"xX c #C5C9D8",
"cX c #C4CBE7",
"vX c #CAD3EB",
"bX c #D3D7EA",
"nX c #C6D6F5",
"mX c #D5DCF3",
"MX c #D9E6FB",
"NX c #D6E9FF",
"BX c #E4EBFC",
"VX c #EEF1FC",
"CX c #E0DFF3",
"ZX c None",
/* pixels */
"ZXZXZXZXZXZXZXZXZXZXZXZXZXZXZXZXZXZXZXZXZXZXZXZXZXZXZXZXZXZXZXZXZXZXZXZXZXZXZXZXZXZXZXZXZXZXZXZXZXZXZXZXZXZXZXZXZXZXZXZXZXZXZXZX",
"ZXZXZXZXZXZXZXZXZXZXZXZXZXZXZXZXZXZXZXZXZXZXZXZXZXZXZXZXZXZXZXZXZXZXZXZXZXZXZXZXZXZXZXZXZXZXZXZXZXZXZXZXZXZXZXZXZXZXZXZXZXZXZXZX",
"ZXZXZXZXZXZXZXZXZXZXZXZXZXZXZXZXZXZXZXZXZXZXZXZXZXZXZXZXZXZXZXZXZXZXZXZXZXZXZXZXZXZXZXZXZXZXZXZXZXZXZXZXZXZXZXZXZXZXZXZXZXZXZXZX",
"ZXZXZXZXZXZXZXZXZXZXZXZXZXZXZXZXZXZXZXZXZXZXZXZXZXZXZXZXZXZXZXZXZXZXZXZXZXZXZXZXZXZXZXZXZXZXZXZXZXZXZXZXZXZXZXZXZXZXZXZXZXZXZXZX",
"ZXZXZXZXZXZXZXZXZXZXZXe.e.q.q.ZXZXZXZXZXZXZXZXZXZXZXZXZXZX% 5 ZXZXF.ZXZXZXZXZXZXZXZXZXZXZXZXZXZXZXZXZXZXZXZXZXZXZXZXZXZXZXZXZXZX",
"ZXZXZXZXZXZXZXZXZXq.] ` ) R ` ` =.ZXZXZXZXZXZXZXZXZXZXZXg +   3 g w C.ZXZXZXZXZXZXZXZXZXZXZXZXZXZXZXZXZXZXZXZXZXZXZXZXZXZXZXZXZX",
"ZXZXZXZXZXZXZXZXZX*.T ) R ) R R R O.q.ZXZXZXZXZXZXZXZXZXg O @ @ 3 3 9 f.P.OXZXZXZXZXZXZXZXZXZXZXZXZXZXZXZXZXZXZXZXZXZXZXZXZXZXZX",
"ZXZXZXZXZXZXZXZXZX_ I W W U W W R R ` =.ZXZXZXZXZXZXZXF.m l.C.m.I.R.I.P.m.N.S.$XZXZXZXZXZXZXZXZXZXZXZXZXZXZXZXZXZXZXZXZXZXZXZXZX",
"ZXZXZXZXZXZXZXw.0.R Y { Y Y Y U I E R R O.q.ZXZXZXsXeX!.U.3XeXdXgXdX4X0XY.P.N.B.c.ZXZXZXZXZXZXZXZXZXZXZXZXZXZXZXZXZXZXZXZXZXZXZX",
"ZXZXZXZXZXZX9.[ F U { %.U Y Y U U E E E ) O.ZXZX9X_.1XU.P.4XgXmXzXgX0X3X4X}.T.Z.v l.$XZXZXZXZXZXZXZXZXZXZXZXZXZXZXZXZXZXZXZXZXZX",
"ZXZXZXZXZXZX-.F E I Y %.Y U Y U U Y U E T ) O.u.A.}.4X[.(.4XqXnXgXfX4X(.1X4X}.Y.S.h.C.ZXZXZXZXZXZXZXZXZXZXZXZXZXZXZXZXZXZXZXZXZX",
"ZXZXZXZXZXZX' H I I W %.%.Y W Y U U E I E T H O.XXeX0X1X}.1X4XeX0X}.T.}.0X4X/.R.).I.Z.R.ZXZXZXZXZXZXZXZXZXZXZXZXZXZXZXZXZXZXZXZX",
"ZXZXZXZXZXZX] T E U W { %.%.W { Y Y I I I T ^ I w.yXwX1XP.T.}.}.~.H.N.~.0X1XOX1X2X+XI.Z.@XZXZXZXZXZXZXZXZXZXZXZXZXZXZXZXZXZXZXZX",
"ZXZXZXZXZXZX] ) T R R W $.%.%.{ Y U I I I E T I Q -X+XW.f.n.P.U.P.).).Y.2X8X9X9XeX2X).x.OXZXZXZXZXZXZXZXZXZXZXZXZXZXZXZXZXZXZXZX",
"ZXZXZXZXZXZX] ) T _ _ ] ] =.&.&.Y U I I E K H I S ` oXm.N.P.P.I.R.+X+XY.9XhXcXhXpX8X).l.R.ZXZXZXZXZXZXZXZXZXZXZXZXZXZXZXZXZXZXZX",
"ZXZXZXZXZXZX-.[ ` ` ] 0.0.8.=.&.{ I K I I S I J S A <.!.R.@X@X@X3X3X2XR.iXbXCXbXaX1XI.f.A.ZXZXZXZXZXZXZXZXZXZXZXZXZXZXZXZXZXZXZX",
"ZXZXZXZXZXZX0.' ' ' ] ..-.*.*.=.%.U I I J J S S S Z K oXOXiXcXcXhXaXpX4XeXvXbXlX8XW.m.b A.aXZXZXZXZXZXZXZXZXZXZXZXZXZXZXZXZXZXZX",
"ZXZXZXZXZXZXZX' _ _ ) ) ) ) ] *.&.$.I I J S G G G V Z ' F.#XcXmXsXaXeX1X+XtXaX0X).z.z n !.sXZXZXZXZXZXZXZXZXZXZXZXZXZXZXZXZXZXZX",
"ZXZXZXZXZXZXZX] _ E J S F F T E Q $.Y S S S G G V V C T h l.#X9X@X/.).Y.N.S.W.W.z.p p b OXZXZXZXZXZXZXZXZXZXZXZXZXZXZXZXZXZXZXZX",
"ZXZXZXZXZXZXZX-.[ _ E I E ) E E I Y $.S S G Z Z - C C V , 0 n Z.c.h.m.n.j.x x d.p e k C.@XZXZXZXZXZXZXZXZXZXZXZXZXZXZXZXZXZXZXZX",
"ZXZXZXZXZXZXZXZX] ' ' ' ' ' ' [ H E I K , , f h f : : V F % r p j x x x s y i y r 4 z E.@XOX@XOXA.h.P.).f.2 n ZXZXZXZXZXZXZXZXZX",
"ZXZXZXZXZXZXZXZX-.' ] +.' ^ G G G D h M E.%X9XtX9X$X!.Z.M w 4 6 9 q 9 9 7 7 7 8 1 8 c B.x.W.Q.r 1 1 6 s 7 2 2 I./.ZXZXZXZXZXZXZX",
"ZXZXZXZXZXZXZXZXw.@.;.;.8.+.` ^ o.M $XkXkXkXrX9X7X_.+X7X8X`.c 0 6 y q a r 7 7 8 8 y j.V.+XA.e 1 q x z.S.H.x 8 g.(.U.!.ZXZXZXZXZX",
"ZXZXZXZXZXZXZXw.@.' ' [ [ [ [ o.C.8XlXiX/.W.M.j.d.B.).7XpXwX_.Z.y 9 q u 8 8 7 8 r x ~.rXdXb i N.1XrXdXdXqX|.W.S.{.^.V.!.ZXZXZXZX",
"ZXZXZXZXZXe.@.' ) ^ ^ ! D D B Z.#XrX8XH.g.L.b.g.g.N.1XwXgXaXpX2XI.9 7 6 2 1 2 8 l P.6XdXfXm.v.0XnXNXNXnXzXdXQ.W.}.(.W.k.E.ZXZXZX",
"ZXZXZXZX#.O.T H H F ~ ~ D o.V./.7X_.~.m.g.T.T.T.T.1XdXgXgXhXpXiX8Xx.3 $ + @ @ p S./.3XeXqXT.^.qX8XzXMXNXBXkXB.~.0X0X/.S.F.#XZXZX",
"ZXZXZX@.O.H I J I F D D } A.N.1X1X_./.@X7X4XfXqX4XdXhXnXhXzXhXrX9X2Xn @ + @ 8 l.S.+X9XeXeX}.}. X^.E./.nXnX(.N.|.6X0X3XQ.D.R.ZXZX",
"ZXZX=.O.Q E J K S F G D X.f.m.+X7X9XiXlXgXfXT.eXgXgX+XeXzXnXhXpXwX8XOX4 + @ e v C.5XeX0XqX4X4X}._.'.v.W.0X^.(.4X8X6X3X/.R.F.$XZX",
"ZX9.+.O._ E F F D G A / V.s H.1X9XsXcXgXfX/.@ n dX/.1 h.hXzXvXhX7X7X_.l O @ a j C.9XpXrXwX1X|.|.(.'.(.(.|.4X0XeXlXlX2X@XR.Z.OXZX",
",.+.] ] ` ) ) F D D G X.g.d.~.3XiXsXaXfXfXS.2 u h.9 @ c.dXhXzXsX).Q.A.c + 3 M w Z.7XwX6X_.3X0X1X~.W.(._.0X0XpXlXmXBXaX/.A.C.D.ZX",
";.' -.-.O.) ) ~ ~ D ! E.d b.(.8XiXhX4X.X4Xx 9 h.s q q B.eXgXeX1XW.V.z.j.e m j 4 h.5X2X2X8XgXkXeXW.j.J._.wXwXlXBXBXBXlX+XI.Z.D.yX",
";.+.+.0.8.-._ ^ F D o.V.i j.~.1X3X8X X}.B.8 s P.U.b.s.g.T.eX0X1XW.V.d.x m j $ 2 6 I.9XaXlXcXvXcX9Xv.v.`.9XiXvXVXBXMXlXQ.Z.x.F.tX",
"r.0.9.9.e.e.9...' / X.Z.q d.Y.}.4X}.[.B.8 8 g.{.[.K.L.G.c p _..XW.M.d s p 4 O $ 0 Z.9XsXvXBXBXCXsXOXh.h.+XiXlXvXcXlXeXI.x.k.A.yX",
">.>.r.y.y.y.y.r.,.>.oXm.s d.Y.}.}.T.G.9 q d.H.T.!.J.'.J.j.a ~.dX{.M.x i e + O @ 3 k.@XiXlXmXCXbXsX!.z d.N.R.5X7X8X2XI.Z.k.k.D.uX",
"..3.r.r.>X>X>X-X;X;X&Xc.q q n.U.H.L.G.v v.U.T.R.XXH.^.J.W.J..XdX.XH.j.i 8 O   @ 2 w A.@XiXpXaX9XQ.h.9 9 x c.I.I.I.Z.B.h.h.c.R.sX",
">.>.r.i.i.-X>X:X,X;X%XN.q q g.H.U.G.T.T.Y.T.T.^.G.T.^.J.'.[.qXfX6X'.v.s 7 O   + @ 3 c R.1X3X+XP.h.q 0 0 9 l h.h.k.h.b v l.Z.!.uX",
">.3.r.t.t.-X-X;X;X;X&XF.p s s.b.T.K.K.^.T./.{.{.[.^.^.J.b.'.'.W.W.'.d.y 8     @ + $ a c.A.W.V.j.q 0 3 3 0 u x f.v z v b c.S.OXuX",
"ZX.. .t.t.-X-X-X;X;X&X!.d.s s.v.U.[.].].T.P.T.).(.T.U.N.v.'.M.v.v.j.y 8 %     O + & u b m.m.j.a q 8 3 8 8 9 q x z l b c.m.Z.OXZX",
"ZX.. .3.t.t.-X-X-X-X&X$Xv.s.s d.H.T.G.].'.G.H.U.U.s.b.g.M.W.M.J.v.d 4 4 # . = , ! g # r p z d y 7 7 8 8 0 7 q l k v h.c.c.Z.@XZX",
"ZXZX . . .6.oX-X-X-X=X$XS.s.q p v.M.g.J.].g.g.G.J.s.L.K.'.n.'.V.v.e 4 & + X ; V E -./ . # r 4 r 7 8 0 0 0 0 9 l l z b k.k.S.#XZX",
"ZXZXZX . .r.3.t.oX5.oX&XA.g.i 9 s g.G.G.K.L.L.G.L.v.G.J.v.v.'.M.d.r % # . X - V S ` 9.:.& + $ @ $ 5 w 0 9 9 9 j j l c b l.!.ZXZX",
"ZXZXZXZX . . . .2.6.6.&X!.z.p 9 p f.M.b.g.s b.L.J.J.v.y c M.n.v.d % % + . = - A P E *.e.:.# & & & 2 j j j j a a j z v z.S.#XZXZX",
"ZXZXZXZXZX3. . . . . .oX$Xx.l y p f.j.B.g.d.s.q d.J.v.y d j.p d 7 % + . X = V A K U ` 0.p.B % % 4 5 9 w 9 j u j l v h.x.OXZXZXZX",
"ZXZXZXZXZXZXZX .| } } :.&XS.k.l d.B.m.j.f.j.g.l x G.M.c x p r r 4 % # . o - A P L U W *.9.y.g 2 5 5 9 u 9 j j l z b l.D.ZXZXZXZX",
"ZXZXZXZXZXZXZXZXZXZXZX<.=XOXc.h.f.B.m.m.n.N.n.B.B.H.H.z.x a 7 8 % % # o = - P L L U ` ] 0.e.:.5 4 5 0 w u j l b k.l.!.uXZXZXZXZX",
"ZXZXZXZXZXZXZXZXZXZXZXZXZXtXD.c.f.f.j.c.P.P.N.z.n.H.B.x p t 4 @ % # . = - Z P P L U { *.] 0.y.g 5 5 w j j z b k.x.D.tXbXZXZXZXZX",
"ZXZXZXZXZXZXZXZXZXZXZXZXZXZX*XR.c.f.v h.B.B.z.f.j.j.x p y 2 @ & % . * > S I J U { { ` ` ` ] 0. .% r k m b M M F.F.*XxXbXZXZXZXZX",
"ZXZXZXZXZXZXZXZXZXZXZXZXZXZXZX#XD.l.h.v f.f.f.l c x p d p 2   . * X * ; Z Y Y P P { ` ` W _ [ 9.g r g m n n n F.$XsXbXZXZXZXZXZX",
"ZXZXZXZXZXZXZXZXZXZXZXZXZXZXZXZXtXOXC.h.h.h.b v d.v v f.m 4 + . X * > - C K { { U *.*.O.R R ^ ,.7.5 g g B N XX*XjXbXZXZXZXZXZXZX",
"ZXZXZXZXZXZXZXZXZXZXZXZXZXZXZXZXZXxX$XA.C.C.l.l.b h.h.b m g g o * * - C C A U &.*.*.*.O._ ) _ ' ,.1.1.XX$X*X*XxXbXZXZXZXZXZXZXZX",
"ZXZXZXZXZXZXZXZXZXZXZXZXZXZXZXZXZXbXxX#XD.C.N n n n m m m N N < * ; - V V P E *.q.=.*.O.Q ) / / #.<XuXxXxXxXZXZXZXZXZXZXZXZXZXZX",
"ZXZXZXZXZXZXZXZXZXZXZXZXZXZXZXZXZXZXZXxXyX$XD.F.N N N XXXX*X$Xh ; - C A F R ` 8.a.a.8.O.) H ^ ^ 7.<XZXZXZXZXZXZXZXZXZXZXZXZXZXZX",
"ZXZXZXZXZXZXZXZXZXZXZXZXZXZXZXZXZXZXZXZXZXxXsXuXuXuXuXxXxXbXxXoX; - D D T [ 0.r.<X<Xi.8.( H H / <.ZXZXZXZXZXZXZXZXZXZXZXZXZXZXZX",
"ZXZXZXZXZXZXZXZXZXZXZXZXZXZXZXZXZXZXZXZXZXZXZXZXZXZXZXZXZXZXZXZXD V D ~ | ..r.-X<X:X>Xp.-.^ D / @.ZXZXZXZXZXZXZXZXZXZXZXZXZXZXZX",
"ZXZXZXZXZXZXZXZXZXZXZXZXZXZXZXZXZXZXZXZXZXZXZXZXZXZXZXZXZXZXZXZX^ D F |  .r.t.-X:X>X>X>Xy.<.^ / ( ZXZXZXZXZXZXZXZXZXZXZXZXZXZXZX",
"ZXZXZXZXZXZXZXZXZXZXZXZXZXZXZXZXZXZXZXZXZXZXZXZXZXZXZXZXZXZXZXZXZX[ /  . .4.4.-X:X-Xt.t.u.4.' ! ( ZXZXZXZXZXZXZXZXZXZXZXZXZXZXZX",
"ZXZXZXZXZXZXZXZXZXZXZXZXZXZXZXZXZXZXZXZXZXZXZXZXZXZXZXZXZXZXZXZXZXZX<. . .6.6.=X=Xu.5.5.6.4.>.( #.ZXZXZXZXZXZXZXZXZXZXZXZXZXZXZX",
"ZXZXZXZXZXZXZXZXZXZXZXZXZXZXZXZXZXZXZXZXZXZXZXZXZXZXZXZXZXZXZXZXZXZXZX<. .2.2.6.5.6.5.3.7.2.| #.ZXZXZXZXZXZXZXZXZXZXZXZXZXZXZXZX",
"ZXZXZXZXZXZXZXZXZXZXZXZXZXZXZXZXZXZXZXZXZXZXZXZXZXZXZXZXZXZXZXZXZXZXZXZX<.|  .2.6.6.6.7.:. .@.ZXZXZXZXZXZXZXZXZXZXZXZXZXZXZXZXZX",
"ZXZXZXZXZXZXZXZXZXZXZXZXZXZXZXZXZXZXZXZXZXZXZXZXZXZXZXZXZXZXZXZXZXZXZXZXZX<.' | } } <.@.;.#.ZXZXZXZXZXZXZXZXZXZXZXZXZXZXZXZXZXZX",
"ZXZXZXZXZXZXZXZXZXZXZXZXZXZXZXZXZXZXZXZXZXZXZXZXZXZXZXZXZXZXZXZXZXZXZXZXZXZXZXZX,.w.p.<XZXZXZXZXZXZXZXZXZXZXZXZXZXZXZXZXZXZXZXZX",
"ZXZXZXZXZXZXZXZXZXZXZXZXZXZXZXZXZXZXZXZXZXZXZXZXZXZXZXZXZXZXZXZXZXZXZXZXZXZXZXZXZXZXZXZXZXZXZXZXZXZXZXZXZXZXZXZXZXZXZXZXZXZXZXZX",
"ZXZXZXZXZXZXZXZXZXZXZXZXZXZXZXZXZXZXZXZXZXZXZXZXZXZXZXZXZXZXZXZXZXZXZXZXZXZXZXZXZXZXZXZXZXZXZXZXZXZXZXZXZXZXZXZXZXZXZXZXZXZXZXZX",
"ZXZXZXZXZXZXZXZXZXZXZXZXZXZXZXZXZXZXZXZXZXZXZXZXZXZXZXZXZXZXZXZXZXZXZXZXZXZXZXZXZXZXZXZXZXZXZXZXZXZXZXZXZXZXZXZXZXZXZXZXZXZXZXZX"
};
