/* XPM */
static char *result[] = {
/* columns rows colors chars-per-pixel */
"65 65 47 1 ",
"  c #51A700",
". c #55AB01",
"X c #5AAE02",
"o c #5DB202",
"O c #62B502",
"+ c #66B901",
"@ c #6BBD01",
"# c #63B408",
"$ c #67B809",
"% c #6FBF0A",
"& c #70BF02",
"* c #72BF08",
"= c #6EC102",
"- c #6FC008",
"; c #74C403",
": c #79C602",
"> c #77C802",
", c #7CCA03",
"< c #73C20C",
"1 c #7AC60B",
"2 c #7DCA0A",
"3 c #7FD002",
"4 c #72C010",
"5 c #7EC711",
"6 c #7DCA11",
"7 c #81CE03",
"8 c #84CD0C",
"9 c #85D201",
"0 c #8AD403",
"q c #8ED803",
"w c #86D20A",
"e c #8BD40B",
"r c #91D703",
"t c #93DA03",
"y c #9BDD04",
"u c #91D70C",
"i c #95DB0A",
"p c #9ADD0A",
"a c #83CD12",
"s c #83D011",
"d c #8DD511",
"f c #91D710",
"g c #95D911",
"h c #9CE004",
"j c #A2E204",
"k c #A3E308",
"l c #A9E408",
/* pixels */
"99999;o;@+@@@@o;h,9999900w=:9999999093O=@@@@@+OOy07999900921w9990",
":9999@o=@@@@@&&29>9999:9q0;>9990>,999>o@@@@@@@=;w:7999:7qua:,99e7",
",999woO=*@@@@+:9,;,:>q:;rq>,>:07;9999@X@==@@++;9,;:7:97@eia>,:9e@",
"w9992O,90qt0:@:7@+:&,,w;7t,70:7;:999wO;000qe,;@w=+:;:7222pw:0:2:;",
"9999,999w3,;@+:;@:::9&&77r77007&w999,90w972;;+;;@;,:7:<a7qq7999;7",
"9,990,=$o.  X+,@::2ee*:7009907079,w907=@oX  .O,;;>,wr1179q7990079",
"99993@#X.oo+=+2:7999f1797yt9999799993-OXXXo+@@;,,9weg::97ty999999",
"9997;++++@=+=>39999df799:,yq990:,9q;=@O+@@@@@;,999wef8707;tr90999",
"9999,9,::;==:999w,8aw70077000099;3,=93,:>;==;9999777w9999,9q0r999",
"9999009999q099997121*7*7799077009,;2909090q099997:&:::::99999,709",
"999900990q973932ea:,77&&:090070090:99099qt9w,9w;97::,,;=;99090wq0",
"9900,97:9>2799<4ww:97997700077999990,9w>,,:,99;@79:9999979979,7w9",
"999q,9w:2,9,*24@;;2,:90e77799&99999099933>97;@;+@&77>29ew,999>,09",
"990999999,==26%@@@@@@:7:&7007,r0999099999,;=,;@+@+@+@;9,;:997:0r9",
"9rtq999909+=2a%@;+@@7@7770r,7&7r9qyt999990;@1w@@:+@@,;:999qw:,:t9",
"qp779999;ww+=*@@7:O22o99907700&r9h7:9999>7w@@=@@:7O*9o,0909,99:0q",
"q,:99,92+@:=@+@@;0=,+@9w9079907709:,9w77++;;@@++@9:;*O90077099770",
"7990>@:9@@@+@>;@@,93@,9997pr90999909,@;9=@@+@;2=@:99*&07999999970",
"9979-=@2<@;;+:9@@>99,w9997,y099090902+@:,+;:@;q=@;997799099999997",
"7009>+@==+:t@:9==999999997:0r0r99090:@@@-@@t;=9=@,09999977999900&",
"9999,-=+;;@9,93+:tttq99,799009790909,;@@=>+7939==qtttq909=7999t;;",
"999993:phtw,99w;7,,,90w;&:999970w,:9ee:0ht0,099;:7,270990,=39qw@:",
"999999pq99099999,>777,999799907,=@@;6atp00q099999;,7777909,=90=@9",
"9999997;;39999993,099999007999&@@@@%%*:+@,0799099:9990990992,,@:7",
"9999999q390999999:9999992@@709,e:+%<6>@=399099999>99999999999,=90",
"999999939933939q9:99999>@@@0w;@7e=4%79,,99,,99300>999999999993>99",
"999999990==30>39q79999997&,7@@@@u1@;,9999>=39,;9qw999999999999999",
"99999999,;990=39099999990797,,,2e27999993=39q>,990999999999999999",
"99999990,3090>99999999999990eeeww99999993,990:3999999999999999999",
"99999999999903999999999999799dd0999999999999939999999999999999999",
"9999999999999999999999,99979eud7999999999999999999999933999999999",
"99999999990999999999900,999999799999999999999999999999q,993999999",
"9999999999999999900799r,999999999999999999999999990307r7,99999999",
"999999999999999990j:790:,9999999999999999999999999h9,007,79999999",
"999999999999997999r09077qq0qq009999999999999999999qt779,0t00qq999",
"999999999:79=9qr0990077rw,79tttq999999939,,9;39q0990r77e0,79tttt9",
"999900>999w@:kpttyr:07&1;77:;;:909999q>9999>;hjtttr797*7;,3,:;:,9",
"399909;9>=+:lh0q00r799977,@:,,>;:w99q0=3,==+ykq009q79977,9==:>:;:",
"39990:;2+@@9,@=,0rr09909::;,9993,99003=3@++2w@=:9qq0ud99,,;>99997",
"99909:@=++=;+Oo=yr0799900,;:9999999993+=@O@:@+o+tt0wde900,;;99999",
"39990=o==@@@=@O:r&79097wq0;:9999,99992o@=@=@@@@@t:2de09,00:;99997",
":999w+o++@+@+@:w7777:0:7r0:::709;9990;X@++++@@;,w2ae29,:q0,:>,9q:",
"9999,o=,3,3;=@>9&@:;,97@9r:77;92:9999Oo,77,:=@-9;<;2;99=3t,,9=w,&",
"99992:090qqe,=;1+&:*9;,,7t7707,=,999w;900tt07;=a%;2;,>>,,q0,09,;,",
"939w99>>=+o.X$a<;;,79@;77097999,999999,:;@O X#1<%::70;=3909999037",
"93999=Oo   o+%a:,790e&,70t09999999999;+O  .X$4a;:,700;;99tq999999",
"9999>+oo++=@%<8,70900:70,qy9999:9902-=ooO+@@--2370070,,9,,h099999",
"9993>;;;==++5e0707770790,:tq0r07;99=>;;=;@@@=w99099999999>0t9q999",
"99999999,,7ee9707::,:,79970q07903,;;09999,7,79797,:::,79979009w99",
"999900790pge70979,::::&&7907770q99;39e999tt0990777&::,;@:9999,9q9",
"99999088ew2,90:@0,:7777::07909993999399390,,79,@77:79,7:>999w7700",
"999q,7aa7298;;;@:,,9797009997;799990w93>2;99,:<@&770,99w09990:,99",
"999079ee8,>:=;@@@@;;;70,;:999299993909999:3;;@<+&&&;&:97;:990,7q9",
"99tr09000:@=92+@@@@+;;,39909::0q99tt099999=@,7@@&+@@&<:739q9,;7r7",
"0jq979079q;+=1@@7@+;9O999q92,9>t9yt9999990,+@,@@::#@0@:q9002,9:00",
"re&7099,+:w=+@@+29#,%O9999,990,0qq;29099+=w;@@@@*0@;,X79909999,7e",
"9,993;,:@@@@@&@@@97,+;9970t0707907797::9@@@@@@@@@,9,@@07997099779",
"9990;+;w@@&@@,7@@:09:9999,ry09790700,@@,:@&@@;0@@;99:709990999709",
"9999;@@::+:w@:0@@,999w3997;qr7q779902@@@:@&e&&q;+:977099999990007",
"9999>+@++@@r;7,@&qqr99990970q0w79079,@@@@+@q::9&@9rq0770,>9097ra*",
"99999,=:09:,99,@700wqqw;;399908eq9999,=;70,,707&;q0wr0900::99uu&:",
"999999qktt09999,,;:2:,93::9970fe,==,999jyqr707077:;,:77909&&ega@7",
"9999990::9999999,29999990999we1@@@=++=02;79970907:090779009&8d%*0",
"999999,3,,w999999:99999992>9ee2,=@@===@+&70907990,77999999977:&70",
"999999990999999q9,999993=@%ae3;09@@@,3=:999999009270999999990,&07"
};
