/* XPM */
static char *result[] = {
/* columns rows colors chars-per-pixel */
"64 64 209 2 ",
"   c black",
".  c #0D111B",
"X  c #0A1223",
"o  c #181F31",
"O  c #1D2129",
"+  c #1B2538",
"@  c #222428",
"#  c #222427",
"$  c #383828",
"%  c #222C3E",
"&  c #26280E",
"*  c #4F270D",
"=  c #413F3F",
"-  c #643517",
";  c #234114",
":  c #355029",
">  c #505236",
",  c #774E33",
"<  c #76732F",
"1  c #0E244E",
"2  c #172747",
"3  c #0F2653",
"4  c #112B5C",
"5  c #102857",
"6  c #18305C",
"7  c #28395A",
"8  c #2B3446",
"9  c #122E64",
"0  c #14326C",
"q  c #1A3467",
"w  c #153574",
"e  c #16397C",
"r  c #1A3A78",
"t  c #2B3E64",
"y  c #213D76",
"u  c #35455B",
"i  c #364C6B",
"p  c #2A4677",
"a  c #344C7A",
"s  c #3D537C",
"d  c #354C68",
"f  c #4C4C4C",
"g  c #464747",
"h  c #485255",
"j  c #545454",
"k  c #5C5C5C",
"l  c #565858",
"z  c #4C544F",
"x  c #705A4D",
"c  c #526449",
"v  c #495773",
"b  c #545E72",
"n  c #4D5769",
"m  c #5F6368",
"M  c #5C6476",
"N  c #636464",
"B  c #6B6B6B",
"V  c #766968",
"C  c #676B73",
"Z  c #737474",
"A  c #7C7C7C",
"S  c #787777",
"D  c #71706F",
"F  c #854317",
"G  c #875636",
"H  c #955E3A",
"J  c #B25B21",
"K  c #887E22",
"L  c #DD6E25",
"P  c #F37B2B",
"I  c #E6752A",
"U  c #865D5D",
"Y  c #AF5858",
"T  c #B87C55",
"R  c #856C6C",
"E  c #966B6B",
"W  c #847575",
"Q  c #8B7575",
"!  c #827D7D",
"~  c #897C7C",
"^  c #927474",
"/  c #9C7777",
"(  c #85776D",
")  c #AA6A6A",
"_  c #AA6868",
"`  c #BA6B6B",
"'  c #B87878",
"]  c #A87D7D",
"[  c #98745C",
"{  c #C25C5C",
"}  c #D07C46",
"|  c #C96868",
" . c #D96B6B",
".. c #C37B7B",
"X. c #E66A6A",
"o. c #FE6E6E",
"O. c #F36C6C",
"+. c #E97F7F",
"@. c #FF7272",
"#. c #FE7B7B",
"$. c #F67979",
"%. c #8E8422",
"&. c #AB9813",
"*. c #D2B505",
"=. c #FD802E",
"-. c #E4C302",
";. c #BC8059",
":. c #85937F",
">. c #C38963",
",. c #163B81",
"<. c #193D85",
"1. c #193F89",
"2. c #163E8C",
"3. c #1A428D",
"4. c #1B4595",
"5. c #1A4598",
"6. c #25458A",
"7. c #3C5583",
"8. c #3D568C",
"9. c #385698",
"0. c #2E509E",
"q. c #3456A3",
"w. c #415B8D",
"e. c #425D91",
"r. c #48629E",
"t. c #797982",
"y. c #656E8B",
"u. c #405EA2",
"i. c #4D67A4",
"p. c #7F8080",
"a. c #7887AC",
"s. c #6E80AB",
"d. c #858585",
"f. c #868689",
"g. c #8B8A8A",
"h. c #928E8E",
"j. c #9B9494",
"k. c #9E9B9B",
"l. c #979595",
"z. c #949F8F",
"x. c #BA8585",
"c. c #A39C9C",
"v. c #A69797",
"b. c #B19C8F",
"n. c #A2AC9E",
"m. c #8C97B5",
"M. c #9FA0A1",
"N. c #A5A5A5",
"B. c #ABA2A2",
"V. c #ADADAD",
"C. c #A8A4AB",
"Z. c #B3AAA9",
"A. c #B8A9AA",
"S. c #A9ABB8",
"D. c #B9ADB0",
"F. c #BABABA",
"G. c #B6B3B7",
"H. c #C58888",
"J. c #D98B8B",
"K. c #C89D81",
"L. c #DD9393",
"P. c #FF8383",
"I. c #FF8B8B",
"U. c #E89999",
"Y. c #FF9292",
"T. c #FF9B9B",
"R. c #F39494",
"E. c #C2B4B4",
"W. c #CBBABA",
"Q. c #C5B8BA",
"!. c #D0BABA",
"~. c #CEABAB",
"^. c #FFA5A5",
"/. c #FFA8A8",
"(. c #F6A0A0",
"). c #D0AD95",
"_. c #D3C2B6",
"`. c #BCBECA",
"'. c #A8AEC2",
"]. c #C2BDC3",
"[. c #CFBFC1",
"{. c #BFC1CD",
"}. c #C3C3C3",
"|. c #C8C6CB",
" X c #D3C3C4",
".X c #DAC6C6",
"XX c #DCC9C9",
"oX c #C9CAD4",
"OX c #D2D2D2",
"+X c #D7D8DD",
"@X c #E3CECE",
"#X c #E6D2D2",
"$X c #EBD5D5",
"%X c #EED9D9",
"&X c #F3DDDD",
"*X c #E9E2DE",
"=X c #DCDDE7",
"-X c #DEE0EB",
";X c #E4E4E4",
":X c #E2E3ED",
">X c #ECECEC",
",X c #FEE6E6",
"<X c #FFE8E8",
"1X c #F7E1E1",
"2X c #F0F0EF",
"3X c #EAEAF0",
"4X c #F3F3F4",
"5X c #FEFEFE",
"6X c None",
/* pixels */
"6X6X6X6X6X6X6X6X6X6X6X6X6X6X6X6X6X6X6X6X6X6X6X6X6X6X6X6X6X6X6X6X6X6X6X6X6X6X6X6X6X6X6X6X6X6X6X6X6X6X6X6X6X6X6X6X6X6X6X6X6X6X6X6X",
"6X6X6X6X6X6X6X6X6X6X6X6X6X6X6X6X6X6X6X6X6X6X6X6X6X6X6X6X6X6X6X6X6X6X6X6X6X6X6X6X6X6X6X6X6X6X6X6X6X6X6X6X6X6X6X6X6X6X6X6X6X6X6X6X",
"6X6X6X6X6X6X6X6X6X6X6X6X6X6Xk S S B 6X6X6X6X6X6X6X6X6X6X6X6X6X6X6X6X6X6X6X6X6X6X6X6X6X6X6X6X6X6X6X6X6X6X6X6X6X6X6X6X6X6X6X6X6X6X",
"6X6X6X6X6X6X6X6X6X6X6X6X6XN d.! W A Z 6X6X6X6X6X6X6X6X6X6X6X6X6X6X6X6X6X6X6X6X6X6X6X6X6X6X6X6X6X6X6X6X6X6X6X6X6X6X6X6X6X6X6X6X6X",
"6X6X6X6X6X6X6X6X6X6X6X6Xf S Q J.U.H.A k 6X6X6X6X6X6X6X6X6X6X6X6X6X6X6X6X6X6X6X6Xz 6X6X6X6X6X6X6X6X6X6X6X6X6X6X6X6X6X6X6X6X6X6X6X",
"6X6X6X6X6X6X6X6X6X6X6X6XN W L././.^.] Z 6X6X6X6X6X6X6X6X6X6X6X6X6X6X6X6X6X6XB A p.A B 6X6X6X6X6X6X6X6X6X6X6X6X6X6X6X6X6X6X6X6X6X",
"6X6X6X6X6X6X6X6X6X6X6X6XB x././.^./.L.S j 6X6X6X6X6X6X6X6X6X6X6X6X6X6X6Xk S A ^ / ! d.k 6X6X6X6X6X6X6X6X6X6X6X6X6X6X6X6X6X6X6X6X",
"6X6X6X6X6X6X6X6X6X6X6X6XV U././././.T.Q l 6X6X6X6X6X6X6X6X6X6X6X6X6X6XN A Q H.(.^.x.! Z 6X6X6X6X6X6X6X6X6X6X6X6X6X6X6X6X6X6X6X6X",
"6X6X6X6X6X6X6X6X6X6X6X6XR T.^.^.^.^.^./ l 6X6X6X6X6X6X6X6X6X6X6X6X6Xl d.^ U./././.J.A S 6X6X6X6X6X6X6X6X6X6X6X6X6X6X6X6X6X6X6X6X",
"6X6X6X6X6X6X6X6X6X6X6X6XQ ^.^.(.^.^./.] j 6X6X6X6X6X6X6X6X6X6X6X6X6XS W L././.^./.x.p.Z 6X6X6X6X6X6X6X6X6X6X6X6X6X6X6X6X6X6X6X6X",
"6X6X6X6X6X6X6X6X6X6X6X6X^ T.T.T.T.^.(.x.f 6X6X6X6X6X6X6X6X6X6X6X6XB A x./.^.^.^.^./ d.B 6X6X6X6X6X6X6X6X6X6X6X6X6X6X6X6X6X6X6X6X",
"6X6X6X6X6X6X6X6X6X6X6X6XR T.T.T.T.T.T.' g 6X6X6X6X6X6X6X6X6X6X6Xf d.Q U.^./.^.^.U.! p.j 6X6X6X6X6X6X6X6X6X6X6X6X6X6X6X6X6X6X6X6X",
"6X6X6X6X6X6X6X6X6X6X6X6XV R.Y.I.I.I.Y...= 6X6X6X6X6X6X6X6X6X6X6XB d.' (.^./.^.^.x.! S 6X6X6X6X6X6X6X6X6X6X6X6X6X6X6X6X6X6X6X6X6X",
"6X6X6X6X6X6X6X6X6X6X6X6Xx J.I.P.#.#.P.` 6X6X6X6X6X6X6X6X6X6X6X6XS W +.Y.T.^.T.R.^ d.l 6X6X6X6X6X6X6X6X6X6X6X6X6X6X6X6X6X6X6X6X6X",
"6X6X6X6X6X6X6X6X6X6X6X6Xk ' P.#.@.#.#.` 6X6X6X6X6X6X6X6X6X6X6Xl p.E #.P.I.Y.Y...d.Z 6X6X6X6X6X6X6X6X6X6X6X6X6X6X6X6X6X6X6X6X6X6X",
"6X6X6X6X6X6X6X6X6X6X6X6Xj E $.@.@.@.#.) 6X6X6X6X6X6X6X6X6X6X6XB d.| @.#.#.P.+.^ A j 6X6X6X6X6X6X6X6X6X6X6X6X6X6X6X6X6X6X6X6X6X6X",
"6X6X6X6X6X6X6X6X6X6X6X6X6XD  .$.@.@.o.E 6X6X6X6X6X6X6X6X6X6X6XS ! X.@.@.@.#.` d.N 6X6X6X6X6X6X6X6X6X6X6X6X6X6X6X6X6X6X6X6X6X6X6X",
"6X6X6X6X6X6X6X6X6X6X6X6X6XB ) o.o.@.O.E 6X6X6X6X6X6X6X6X6X6Xz d.R X.@.o.@. .! Z 6X6X6X6X6X6X6X6X6X6X6X6X6X6X6X6X6X6X6X6X6X6X6X6X",
"6X6X6X6X6X6X6X6X6X6X6X6X6Xl Q X.@.o.O.R z 6X6X6X6X6X6X6X6X6XN f.E O.o.@.O./ A f 6X6X6X6X6X6X6X6X6X6X6X6X6X6X6X6X6X6X6X6X6X6X6X6X",
"6X6X6X6X6X6X6X6X6X6X6X6X6X6XZ _ o.@.X.W j 6X6X6X6X6X6X6X6X6XS d.) @.o.o.' d.k 6X6X6X6X6X6X6X6X6X6X6X6X6X6X6X6X6X6X6X6X6X6X6X6X6X",
"6X6X6X6X6X6X6X6X6X6X6X6X6X6Xm W  .o. .W k 6X6X6X6X6X6X6X6X6XA d.` o.o. .d.N 6X6X6X6X6X6X6X6X6X6X6X6X6X6X6X6X6X6X6X6X6X6X6X6X6X6X",
"6X6X6X6X6X6X6X6X6X6X6X6X6X6X6XA _ o.| ! N 6X6X6X6X6X6X6X6Xl d.d.` @.X./ Z 6X6X6X6X6X6X6X6X6X6X6X6X6X6X6X6X6X6X6X6X6X6X6X6X6X6X6X",
"6X6X6X6X6X6X6X6X6X6X6X6X6X6X6XN Q X.` ! B 6X6X6X6X6X6X6X6XN f.p.| o.` A f 6X6X6X6X6X6X6X6X6X6X6X6X6X6X6X6X6X6X6X6X6X6X6X6X6X6X6X",
"6X6X6X6X6X6X6X6X6X6X6X6X6X6X6Xf A _ _ d.S 6X6X6X6X6X6X6X6XN f.~  .X.~ m 6X6X6X6X6X6X6X6X6X6X6X6X6X6XN.V.6X6X6X6X6X6X6X6X6X6X6X6X",
"6X6X6X6X6X6X6X6X6X6X6X6X6X6X6X6XD W U d.f.N N B B N k j 6XZ f.:.| E D 6X6X6X6X6X6X6X6X6X6X6X6X6X6XN.>XOX6X6X6X6X6X6X6X6X6X6X6X6X",
"6X6X6X6X6X6X6X6X6X6X6X6X6X6X6X6Xk d.B p.! p.p.! d.f.f.p.A d.g.W U S 6X6X6X6X6X6X6X6X6X6X6X6X6X6XN.>X5X;X6X6X6X6X6X6X6X6X6X6X6X6X",
"6X6X6X6X6X6X6X6X6X6X6X6X6X6X6X6Xg :.t.j.E.#X%XD.! d.d.f.f.d.t.D B B 6X6X6X6X6X6X6X6X6X6X6X6X6XF.4X5X5X4X6X6X6X6X6X6X6X6X6X6X6X6X",
"6X6X6X6X6X6X6X6X6X6X6X6X6X6X6X6XB h.!.1X<X<X<X<XE.d.f.f.f.h.B.v.d.g 6X6X6X6X6X6X6X6X6X6X6X6XOX5X5X5X5X5X}.6X6X6X6X6X6X6X6X6X6X6X",
"6X6X6X6X6X6X6X6X6X6X6X6X6X6X6XN v.$X<X<X<X<X,X<X%Xh.d.d.g.#X,X,X&Xv.6X6X6X6X6X6X6X6X6XC.|.2X5X5X5X5X5X5X>X6X6X6X6X6X6X6X6X6X6X6X",
"6X6X6X6X6X6X6X6X6X6X6X6X6X6Xj f.XX$XXXXX X#X,X<X1Xv.d.d.n.1X,X,X<X&Xv.6X6X6X6X}.>X;X>X4X5X5X5X2X;X2X5X5X5XOX6X6X6X6X6X6X6X6X6X6X",
"6X6X6X6X6X6X6X6X6X6X6X6X6X6XS c.#XD.Z.oX=X].[.,X1XN.d.d.Z.,X,X1X&X<X@X6X6X6X6XN.4X5X5X5X5X5XN.c : :.5X5X5X5X}.6X6X6X6X6X6X6X6X6X",
"6X6X6X6X6X6X6X6X6X6X6X6X6Xk d.Z.D.`.:X:X=X=X|.XX<XB.d.d.E.1X[.].].Q.@Xv.6X6X6X6X>X5X5X5X5X5Xz.; ; n.5X5X5X5X5X|.6X6X6X6X6X6X6X6X",
"6X6X6X6X6X6X6X6X6X6X6X6X6XZ g.E.`.:X+Xm.s.m.+XQ.&XZ.~ d.W.Q.`.=X:X}.D.B.6X6X6X6X+X5X5X5X5X5X>Xc : @X5X5X5X5X5X5X;XG.6X6X6X6X6X6X",
"6X6X6X6X6X6X6X6X6X6X6X6X6Xp.g.W.].:Xy.q.0.0.a.].&XZ.d.g.D.y.i.m.=X=XD.B.j 6X6X6X}.5X5X5X5X5X5Xn.> !.2X5X5X5X5X5X5X>XM.6X6X6X6X6X",
"6X6X6X6X6X6X6X6X6X6X6X6Xj d.g.E.].oXe.q . 1 i.G.$XB.d.g.l.6.y 9.'.:X`.j.N 6X6X6XF.5X5X5X5X5X).} P I >.5X5X5X5X5X4XN.6X6X6X6X6X6X",
"6X6X6X6X6X6X6X6X6X6X6X6XB d.d.E.].`.q.2   X 9.C.$XB.d.g.y..   y a.:X|.Z.B 6X6X6XF.5X5X5X5X2X} L =.P ;.5X5X5X5X5XG.6X6X6X6X6X6X6X",
"6X6X6X6X6X6X6X6X6X6X6XB d.d.d.k.S.`.i.6.2 y e.C.$Xh.Z ! y.2 X 6.a.:X|.c.Z 6X6X6XF.5X5X5X5X4XT L P L T 4X5X5X5X+X6X6X6X6X6X6X6X6X",
"6X6X6X6X6X6X6X6X6X6X6XA g.d.d.g.f.f.b 9.9.8.b t.g.A S Z M 8.0.9.S.=XG.h.B 6X6X6XOX5X5X5X5X5XK.F F I >.5X5X5X5XG.6X6X6X6X6X6X6X6X",
"6X6X6X6X6X6X6X6X6X6Xk d.g.d.f.d.f.f.d.S g.B.Z.c.V R A W V f.M m f.f.d.d.A N 6X6X>X5X5X5X5X5X_.- * H ( 2X5X5X2X6X6X6X6X6X6X6X6X6X",
"6X6X6X6X6X6X6X6X6X6XN d.d.d.d.d.d.f.v.A..X<X,X,X~.Y { Y H.&XA.f.f.p.d.d.d.Z 6XV.4X5X5X5X5X5X*X, & V ! Z.5X5X3X6X6X6X6X6X6X6X6X6X",
"6X6X6X6X6X6X6X6X6X6XN f.d.f.g.d.d.h.#X,XW.&X,X,X<X!.` x.&X<X&Xg.f.d.d.d.f.S l ;X5X5X5X5X5X5X4X[ * , Z f.>X5X>X6X6X6X6X6X6X6X6X6X",
"6X6X6X6X6X6X6X6X6X6Xk d.d.f.d.d.f.D.,X<X$XW.%X<X,X,XW.1X<X,XXXh.f.f.d.d.d.S G.5X5X5X5X5X5X5X5Xb.G J , g.4X5X>X6X6X6X6X6X6X6X6X6X",
"6X6X6X6X6X6X6X6X6X6X6Xt.d.d.d.d.f. X<X<X<X&X!. X@X.XA.$X#XW..XW.d.f.d.d.d.Z d.V.}.;X4X5X5X5XOXp.A G x k.5X5X4X6X6X6X6X6X6X6X6X6X",
"6X6X6X6X6X6X6X6X6X6X6XD g.d.g.d.f..X,X,X,X<X,X$X@X@X#X.XXX&X<X Xf.d.f.f.d.N 6X6X6X6XG.;X5X5XN.p.C S d.k.4X5X4XV.6X6X6X6X6X6X6X6X",
"6X6X6X6X6X6X6X6X6X6X6Xj ~ d.d.d.d.F.<X<X,X,X<X<X<X<X<X<X<X<X<X Xf.f.d.d.:.g 6X6X6X6X6X6XOX4XC.A B Z B Z +X>X;XF.6X6X6X6X6X6X6X6X",
"6X6X6X6X6X6X6X6X6X6X6X6XN d.d.d.d.k.$X<X,X<X,X,X<X,X,X<X,X<X<XE.d.d.d.g.B 6X6X6X6X6X6X6X6X}.}.S k B S B d.6X6X6X6X6X6X6X6X6X6X6X",
"6X6X6X6X6X6X6X6X6X6X6X6X6Xk :.d.f.d.c.XX,X<X<X<X,X,X<X,X,X<X&Xc.d.d.f.S 6X6X6X6X6X6X6X6X6X6Xk.A k B Z j 6X6X6X6X6X6X6X6X6X6X6X6X",
"6X6X6X6X6X6X6X6X6X6X6X6X6X6Xj S d.f.g.g.Z. X$X&X,X,X,X,X,X%XA.f.f.d.S j 6X6X6X6X6X6X6X6X6X6X6XN Z B Z 6X6X6X6X6X6X6X6X6X6X6X6X6X",
"6X6X6X6X6X6X6X6X6X6X6X6X6X6X6X6Xl B :.d.d.f.h.k.B.B.A.A.B.h.d.p.Z N 6X6X6X6X6X6X6X6X6X6X6X6X6X7 v k 6X6X6X6X6X6X6X6X6X6X6X6X6X6X",
"6X6X6X6X6X6X6X6X6X6X6X6X6X6X6X6X6X6Xk d.d.d.d.d.d.d.d.d.d.t.l 6X6X6X6X6X6X6X6X6X6X6X6X6X6X6X6Xw 3.e 6X6X6X6X6X6X6X6X6X6X6X6X6X6X",
"6X6X6X6X6X6X6X6X6X6X6X6X6X6X6X6X6X6X8 A f.f.d.d.f.d.d.f.d.l 6X6X6X6X6X6X6X6X6X6X6X6X6X6X6X6X6Xe 5.3.6X6X6X6X6X6X6X6X6X6X6X6X6X6X",
"6X6X6X6X6X6X6X6X6X6X6X6X6X6X6X6X6Xu s n Z p.d.f.d.f.f.f.A h 6X6X6X6X6X6X6X6X6X6X6X6X6X6X6X6X6X<.5.4.6X6X6X6X6X6X6X6X6X6X6X6X6X6X",
"6X6X6X6X6X6X6X6X6X6X6X6X6X6X6X6X6X7.8.8.s v M C p.d.A C v 7.a 6X6X6X6X6X6X6X6X6X6X6X6X6X6X6X4 4.5.3.6X6X6X6X6X6X6X6X6X6X6X6X6X6X",
"6X6X6X6X6X6X6X6X6X6X6X6X6X6X6X6Xu e.r.e.e.e.8.s i h d 7.e.e.w.7 6X6X6X6X6X6X6X6X6X6X6X6X6X6Xw 4.5.<.6X6X6X6X6X6X6X6X6X6X6X6X6X6X",
"6X6X6X6X6X6X6X6X6X6X6X6X6X6X6X6X6 a s w.e.e.w.8.8 + 8 d w.w.a y 0 6X6X6X6X6X6X6X6X6X6X6X6X6X<.4.5.,.6X6X6X6X6X6X6X6X6X6X6X6X6X6X",
"6X6X6X6X6X6X6X6X6X6X6X6X6X6X6Xe 3.3.3.r p a 7.d O @ O 2 y r ,.4.4.4.3.<.0 6X6X6X6X6X6X6X6X6X3.4.5.w 6X6X6X6X6X6X6X6X6X6X6X6X6X6X",
"6X6X6X6X6X6X6X6X6X6X6X6X6X6X3.5.4.5.4.4.4.3.r 3.6 O O 0 6.u < h 4.4.4.4.4.3.w 9 6X6X6X6X6X0 4.4.4.0 6X6X6X6X6X6X6X6X6X6X6X6X6X6X",
"6X6X6X6X6X6X6X6X6X6X6X6X6Xe 4.4.4.4.4.5.5.5.5.5.3.+ O r p %.< K 3.4.4.4.4.4.4.4.3.3.,.w 4 w 4.4.4.6X6X6X6X6X6X6X6X6X6X6X6X6X6X6X",
"6X6X6X6X6X6X6X6X6X6X6X6X4 4.4.5.4.4.6.s d i p 3.3.+ @ q 4.< K %.6.5.5.5.5.4.4.4.4.4.4.5.4.4.4.4.<.6X6X6X6X6X6X6X6X6X6X6X6X6X6X6X",
"6X6X6X6X6X6X6X6X6X6X6X6Xw 4.4.4.4.e p &.-.-.*.d 3.+ O 6 5.i c u w ,.5.4.4.4.5.4.4.4.4.4.4.4.4.4.w 6X6X6X6X6X6X6X6X6X6X6X6X6X6X6X",
"6X6X6X6X6X6X6X6X6X6X6X6Xe 4.4.5.4.e r > > > > y 3.o @ 2 3.e ,.3.<.e 4.4.3.3.<.3.3.4.4.4.4.4.4.4.6X6X6X6X6X6X6X6X6X6X6X6X6X6X6X6X",
"6X6X6X6X6X6X6X6X6X6X6X6X3.4.4.4.4.e ,.,.3.2.2.e y : $ 2 ,.e 3.q 0 e 5.,.1 6X6X6X6X6X6X9 0 w e 9 6X6X6X6X6X6X6X6X6X6X6X6X6X6X6X6X",
"6X6X6X6X6X6X6X6X6X6X6X6X3.4.4.4.3.w ,.0 w 0 0 e r > $ + ,.0 e w <.e 4.w 6X6X6X6X6X6X6X6X6X6X6X6X6X6X6X6X6X6X6X6X6X6X6X6X6X6X6X6X",
"6X6X6X6X6X6X6X6X6X6X6X6X3 4 4 4 4 3 3 3 3 3 3 3 1 . . . 3 1 4 9 4 1 4 6X6X6X6X6X6X6X6X6X6X6X6X6X6X6X6X6X6X6X6X6X6X6X6X6X6X6X6X6X"
};
