/* XPM */
static char *result[] = {
/* columns rows colors chars-per-pixel */
"64 64 202 2 ",
"   c #050504",
".  c #39361C",
"X  c #0F1C3A",
"o  c #1D1F22",
"O  c #1D2128",
"+  c #1C2434",
"@  c #1A253B",
"#  c #222429",
"$  c #2B2B2A",
"%  c #423E19",
"&  c #7C3A3A",
"*  c #762C2C",
"=  c #53593A",
"-  c #706F31",
";  c #6D6C30",
":  c #15274C",
">  c #1B2943",
",  c #152C56",
"<  c #18315F",
"1  c #283144",
"2  c #2E3C56",
"3  c #122D63",
"4  c #14326C",
"5  c #193364",
"6  c #153573",
"7  c #153779",
"8  c #16397D",
"9  c #1D3E7C",
"0  c #1F3E76",
"q  c #213C6B",
"w  c #213D73",
"e  c #2E415D",
"r  c #3C4657",
"t  c #1E407E",
"y  c #39516A",
"u  c #3C5366",
"i  c #26457B",
"p  c #2A4578",
"a  c #344C7B",
"s  c #334972",
"d  c #31486C",
"f  c #4F4E4E",
"g  c #46484D",
"h  c #465248",
"j  c #535454",
"k  c #5B5B5B",
"l  c #5A5657",
"z  c #494C55",
"x  c #775657",
"c  c #695D5D",
"v  c #586042",
"b  c #414F6A",
"n  c #555A65",
"m  c #465479",
"M  c #585678",
"N  c #50536D",
"B  c #6A5970",
"V  c #5B6270",
"C  c #646464",
"Z  c #6B6C6C",
"A  c #666667",
"S  c #756D6D",
"D  c #7F6C6C",
"F  c #7D6464",
"G  c #666A73",
"H  c #6E7070",
"J  c #737373",
"K  c #7B7B7B",
"L  c #777778",
"P  c #9B0000",
"I  c #960000",
"U  c #A30000",
"Y  c #AA0000",
"T  c #B30000",
"R  c #BC0000",
"E  c #B10D0D",
"W  c #B71919",
"Q  c #963838",
"!  c #8F2323",
"~  c #AB2727",
"^  c #C30000",
"/  c #CC0000",
"(  c #D40000",
")  c #DC0000",
"_  c #D20E0E",
"`  c #CD1313",
"'  c #E30000",
"]  c #ED0000",
"[  c #F40000",
"{  c #FF0000",
"}  c #D33131",
"|  c #80771F",
" . c #8F4D4D",
".. c #B75D5D",
"X. c #A15B5B",
"o. c #896565",
"O. c #976868",
"+. c #857676",
"@. c #847E7E",
"#. c #8B7878",
"$. c #987877",
"%. c #8E6B71",
"&. c #BB6567",
"*. c #AB7B7B",
"=. c #A47877",
"-. c #B57373",
";. c #C56B6B",
":. c #CA6969",
">. c #C87979",
",. c #DA6C6C",
"<. c #E66868",
"1. c #F86D6D",
"2. c #FF7272",
"3. c #FF7A7A",
"4. c #F57373",
"5. c #EB7B7B",
"6. c #8F8420",
"7. c #C9AE08",
"8. c #E4C302",
"9. c #163B82",
"0. c #193E86",
"q. c #173E8A",
"w. c #193F89",
"e. c #1A428D",
"r. c #1C4187",
"t. c #1B4495",
"y. c #1A4599",
"u. c #234283",
"i. c #204588",
"p. c #3D5685",
"a. c #3F598A",
"s. c #2F4F98",
"d. c #3E60B0",
"f. c #405B8D",
"g. c #435E91",
"h. c #454D80",
"j. c #70788E",
"k. c #4D6AAC",
"l. c #536FB0",
"z. c #6A7EAF",
"x. c #9B7285",
"c. c #DF7F81",
"v. c #7F8080",
"b. c #6D82B4",
"n. c #858585",
"m. c #898585",
"M. c #888887",
"N. c #878888",
"B. c #8A8989",
"V. c #87878A",
"C. c #918C8D",
"Z. c #908585",
"A. c #8F8F92",
"S. c #959292",
"D. c #999494",
"F. c #9E9A9B",
"G. c #A59D9D",
"H. c #A49898",
"J. c #B89797",
"K. c #8A95B2",
"L. c #9AA1B5",
"P. c #ABA3A4",
"I. c #A7A5A9",
"U. c #BBADAD",
"Y. c #B1A8A8",
"T. c #ABACB3",
"R. c #BEB3B3",
"E. c #BCB5BA",
"W. c #B2AEB3",
"Q. c #DC8A8C",
"!. c #C48F8F",
"~. c #FD8383",
"^. c #FF8A8A",
"/. c #EC9B9C",
"(. c #FF9D9D",
"). c #FB9696",
"_. c #E68F90",
"`. c #CCBDBD",
"'. c #C5B6B6",
"]. c #CFAEAE",
"[. c #FDA3A3",
"{. c #FFA8A8",
"}. c #FFA8A7",
"|. c #B5BCD0",
" X c #C9C1C5",
".X c #D6C5C5",
"XX c #DBCACA",
"oX c #D9C7C7",
"OX c #D2D1DB",
"+X c #D4CDD4",
"@X c #E1CDCD",
"#X c #E2C1C1",
"$X c #E5D1D1",
"%X c #EBD5D5",
"&X c #EED9D9",
"*X c #F2DCDC",
"=X c #D8D9E4",
"-X c #FDE6E6",
";X c #FFE9E9",
":X c #F7E1E1",
">X c #E5E6F0",
",X c None",
/* pixels */
",X,X,X,X,X,X,X,X,X,X,X,X,X,X,X,X,X,X,X,X,X,X,X,X,X,X,X,X,X,X,X,X,X,X,X,X,X,X,X,X,X,X,X,X,X,X,X,X,X,X,X,X,X,X,X,X,X,X,X,X,X,X,X,X",
",X,X,X,X,X,X,X,X,X,X,X,X,X,X,X,X,X,X,X,X,X,X,X,X,X,X,X,X,X,X,X,X,X,X,X,X,X,X,X,X,X,X,X,X,X,X,X,X,X,X,X,X,X,X,X,X,X,X,X,X,X,X,X,X",
",X,X,X,X,X,X,X,X,X,X,X,X,X,X,X,X,X,X,X,X,X,X,X,X,X,X,X,X,X,X,X,X,X,X,X,X,X,X,X,X,X,X,X,X,X,X,X,X,X,X,X,X,X,X,X,X,X,X,X,X,X,X,X,X",
",X,X,X,X,X,X,X,X,X,X,X,X,X,X,X,X,X,X,X,X,X,X,X,X,X,X,X,X,X,X,X,X,X,X,X,X,X,X,X,X,X,X,X,X,X,X,X,X,X,X,X,X,X,X,X,X,X,X,X,X,X,X,X,X",
",X,X,X,X,X,X,X,X,X,X,X,X,X,X,X,X,X,X,X,X,X,X,X,X,X,X,X,X,X,X,X,X,X,X,X,X,X,X,X,X,X,X,X,X,X,X,X,X,X,X,X,X,X,X,X,X,X,X,X,X,X,X,X,X",
",X,X,X,X,X,X,X,X,X,X,X,X,X,X,X,X,X,X,X,X,X,X,X,X,X,X,X,X,X,X,X,X,X,X,X,X,X,X,X,X,X,X,X,X,X,X,X,X,X,X,X,X,X,X,X,X,X,X,X,X,X,X,X,X",
",X,X,X,X,X,X,X,X,X,X,X,X,X,X,X,X,X,X,X,X,X,X,X,X,X,X,X,X,X,X,X,X,X,X,X,X,X,X,X,X,X,X,X,X,X,X,X,X,X,X,X,X,X,X,X,X,X,X,X,X,X,X,X,X",
",X,X,X,X,X,X,X,X,X,X,X,X,X,X,X,X,X,X,X,X,X,X,X,X,X,X,X,X,X,X,X,X,X,XU T ^ ^ ^ ^ T U ,X,X,X,X,X,X,X,X,X,X,X,X,X,X,X,X,X,X,X,X,X,X",
",X,X,X,X,X,X,X,X,X,X,X,X,X,X,X,X,X,X,X,X,X,X,X,X,X,X,X,X,X,X,X^ ' ] [ { { { { { { [ [ ) ^ ,X,X,X,X,X,X,X,X,X,X,X,X,X,X,X,X,X,X,X",
",X,X,X,X,X,X,X,X,X,X,X,X,X,X,X,X,X,X,X,X,X,X,X,X,X,X,X,XT ) [ { { { { { { { { { { { { { { [ ) U ,X,X,X,X,X,X,X,X,X,X,X,X,X,X,X,X",
",X,X,X,X,X,X,X,X,X,X,X,X,X,X,X,X,X,X,X,X,X,X,X,X,X,XU ) { { { { { { { { { { { { { { { { { { { [ ) P ,X,X,X,X,X,X,X,X,X,X,X,X,X,X",
",X,X,X,X,X,X,X,X,X,X,X,X,X,X,X,X,X,X,X,X,X,X,X,X,X/ [ { { { { { { { { { { { { { { { { { { { { { { [ ^ ,X,X,X,X,X,X,X,X,X,X,X,X,X",
",X,X,X,X,X,X,X,X,X,X,X,X,X,X,X,X,X,X,X,X,X,X,X,X) { { { { { { { { { { { { { { { { { { { { { { { { { [ ( ,X,X,X,X,X,X,X,X,X,X,X,X",
",X,X,X,X,X,X,X,X,X,X,X,X,X,X,X,X,X,X,X,X,X,X,X' { { { { { { { { { { { [ [ ] ] [ [ { { { { { { { { { { { ) ,X,X,X,X,X,X,X,X,X,X,X",
",X,X,X,X,X,X,X,X,X,X,X,X,X,X,X,X,X,X,X,X,X,X' { { { { { { { { [ ] / T ,X,X,X,X,XY R ( [ { { { { { { { { { ) ,X,X,X,X,X,X,X,X,X,X",
",X,X,X,X,X,X,X,X,X,X,X,X,X,X,X,X,X,X,X,X,X) { { { { { { { { ' T ,X,X,X,X,X,X,X,X,X,X,XP [ { { { { { { { { { ( ,X,X,X,X,X,X,X,X,X",
",X,X,X,X,X,X,X,X,X,X,X,X,X,X,X,X,X,X,X,X/ { { { { { { { ] R ,X,X,X,X,X,X,X,X,X,X,X,X,X( { { { { { { { { { { { R ,X,X,X,X,X,X,X,X",
",X,X,X,X,X,X,X,X,X,X,X,X,X,X,X,X,X,X,XY [ { { { { { { ' ,X,X,X,X,X,X,X,X,X,X,X,X,X,X( { { { { { { { { { { { { [ P ,X,X,X,X,X,X,X",
",X,X,X,X,X,X,X,X,X,X,X,X,X,X,X,X,X,X,X' { { { { { { ) ,X,X,X,X,X,X,X,X,X,X,X,X,X,X/ { { { { { { { { { { { { { { ) ,X,X,X,X,X,X,X",
",X,X,X,X,X,X,X,X,X,X,X,X,X,X,X,X,X,XT { { { { { { ' ,X,X,X,X,X,X,X,X,X,X,X,X,X,X^ { { { { { { { { ' [ { { { { { [ Y ,X,X,X,X,X,X",
",X,X,X,X,X,X,X,X,X,X,X,X,X,X,X,X,X,X' { { { { { [ P ,X,X,X,X,X,X,X,X,X,X,X,X,X^ { { { { { { { { ) ,XR [ { { { { { ) ,X,X,X,X,X,X",
",X,X,X,X,X,X,X,X,X,X,X,X,X,X,X,X,XY [ { { { { { R ,X,X,X,X,X,X,X,X,X,X,X,X,XR [ { { { { { { { ) ,X,X,X) { { { { { [ ,X,X,X,X,X,X",
",X,X,X,X,X,X,X,X,X,X,X,X,X,X,X,X,X( { { { { { ' ,X,X,X,X,X,X,X,X,X,X,X,X,XT [ { { { { { { { ' ,X,X,X,XU [ { { { { { ^ ,X,X,X,X,X",
",X,X,X,X,X,X,X,X,X,X,X,X,X,X,X,X,X) _ ~  .Q W U ,X,X,X,X,X,X,X,X,X,X,X,XY [ { { { { { { { ' ,X,X,X,X,X,X) { { { { { ' ,X,X,X,X,X",
",X,X,X,X,X,X,X,X,X,X,X,X,X,X,X,X,XQ o.K H Z A c Z Z C f f C C ,X,X,X,XU [ { { { { { { { ] ,X,X,X,X,X,X,XT { { { { { [ ,X,X,X,X,X",
",X,X,X,X,X,X,X,X,X,X,X,X,X,X,X,Xf @.H Z K n.M.M.M.M.n.n.L H Z L C ,XU ] { { { { { { { ] U ,X,X,X,X,X,X,X,X] { { { { [ U ,X,X,X,X",
",X,X,X,X,X,X,X,X,X,X,X,X,X,X,X,XJ Z K v.A J n.M.n.M.n.n.M.M.K S Z * ] { { { { { { { [ Y ,X,X,X,X,X,X,X,X,X) { { { { { T ,X,X,X,X",
",X,X,X,X,X,X,X,X,X,X,X,X,X,X,Xf Z B. X$X'.#.C J v.n.n.n.v.K J C A & [ { { { { { { [ T ,X,X,X,X,X,X,X,X,X,X/ { { { { { ^ ,X,X,X,X",
",X,X,X,X,X,X,X,X,X,X,X,X,X,X,Xk B.XX;X;X;X;X@X'.U.M.n.n.n.Z.H.U.XXJ.` { { { { { [ R ,X,X,X,X,X,X,X,X,X,X,X^ { { { { { ^ ,X,X,X,X",
",X,X,X,X,X,X,X,X,X,X,X,X,X,Xl n.'.;X&X.X.X%X;X;X*XD.n.n.`.;X;X;X;X;X>.[ { { { [ ^ ,X,X,X,X,X,X,X,X,X,X,X,XR { { { { { ^ ,X,X,X,X",
",X,X,X,X,X,X,X,X,X,X,X,X,X,XL D.&X`.C.m.n.A.`.;X:XF.n.n..X;X;X;X-X;X&X} { { { ^ ,X,X,X,X,X,X,X,X,X,X,X,X,X^ { { { { { ^ ,X,X,X,X",
",X,X,X,X,X,X,X,X,X,X,X,X,XA n.P.`.n.n.n.n.n.B.$X-XG.n.M.XX;X$XY.P.oX;X-.] { / ,X,X,X,X,X,X,X,X,X,X,X,X,X,X/ { { { { { T ,X,X,X,X",
",X,X,X,X,X,X,X,X,X,X,X,X,XL n.U.D.K @.j.n.B.n.R.-XP.n.B.@X@XS.n.n.B.oX].W ( ,X,X,X,X,X,X,X,X,X,X,X,X,X,X,X( { { { { [ Y ,X,X,X,X",
",X,X,X,X,X,X,X,X,X,X,X,X,Xn.B.H.l A b 1 $ j L P.:XP.n.B.oXH.n.m.m.n.G.'.& ,X,X,X,X,X,X,X,X,X,X,X,X,X,X,X,X] { { { { [ ,X,X,X,X,X",
",X,X,X,X,X,X,X,X,X,X,X,Xk n.Z l I.OXl.X   : m C.*XG.n.B.'.m.H n n C J '.A ,X,X,X,X,X,X,X,X,X,X,X,X,X,X,XP [ { { { { ' ,X,X,X,X,X",
",X,X,X,X,X,X,X,X,X,X,X,XZ n.L P.+X>Xz.u.: i.L.I.*XF.N.B.G.g   : b. XZ @.J ,X,X,X,X,X,X,X,X,X,X,X,X,X,X,X/ { { { { { ^ ,X,X,X,X,X",
",X,X,X,X,X,X,X,X,X,X,XZ M.n.n.D.W.OX|.k.k.z.=X+X$XS.n.B.B.p X w K.>X Xm.Z ,X,X,X,X,X,X,X,X,X,X,X,X,X,X,X] { { { { [ U ,X,X,X,X,X",
",X,X,X,X,X,X,X,X,X,X,XK N.n.n.N.n.A.I.L.K.T.I.F.P.B.n.n.V.j.s.k.|.=XE.Y.Z ,X,X,X,X,X,X,X,X,X,X,X,X,X,X^ { { { { { ) ,X,X,X,X,X,X",
",X,X,X,X,X,X,X,X,X,XC n.N.n.N.n.n.n.n.n.n.n.m.C.v.K n.@.+.@.G v.A.V.n.B.v.A ,X,X,X,X,X,X,X,X,X,X,X,XP [ { { { { { T ,X,X,X,X,X,X",
",X,X,X,X,X,X,X,X,X,XZ n.m.n.n.n.m.n.n.n.m.B.U.*X`.&.;...!. XB.n.V.V.M.n.m.L ,X,X,X,X,X,X,X,X,X,X,X,X' { { { { { ) ,X,X,X,X,X,X,X",
",X,X,X,X,X,X,X,X,X,XJ M.n.m.N.n.M.n.n.n.B.`.-X;X;X#XQ.].*X-XP.M.V.n.n.n.M.L ,X,X,X,X,X,X,X,X,X,X,X( { { { { { [ U ,X,X,X,X,X,X,X",
",X,X,X,X,X,X,X,X,X,XA M.n.n.n.n.n.n.n.n.R.;X;X-X;X;X@X:X-X-X.Xm.V.n.n.n.M.L ,X,X,X,X,X,X,X,X,X,X( { { { { { { / ,X,X,X,X,X,X,X,X",
",X,X,X,X,X,X,X,X,X,XA n.M.n.n.M.M.n.n.F.*X-X-X:X%X@X.X@X&X-X&XS.n.n.V.n.B.L ,X,X,X,X,X,X,X,XU ' { { { { { { ) ,X,X,X,X,X,X,X,X,X",
",X,X,X,X,X,X,X,X,XA Z K M.n.n.n.n.n.n.R.;X-X&X%X&X:X-X:X%X&X-XG.n.n.n.n.m.Z ,X,X,X,X,X,X,X^ [ { { { { { { ' ,X,X,X,X,X,X,X,X,X,X",
",X,X,X,X,X,X,X,X,XL o.o.n.n.m.n.n.n.n.`.;X-X:X;X;X-X;X;X;X-X-XP.n.n.n.n.n.j ,X,X,X,XY ( [ { { { { { { { ' ,X,X,X,X,X,X,X,X,X,X,X",
",X,X,X,X,X,X,X,Xl K &.<.o.n.N.n.M.M.n.'.;X;X;X-X;X-X-X-X-X-X-XP.n.n.n.n.o.E / ( ) [ [ { { { { { { { { ) ,X,X,X,X,X,X,X,X,X,X,X,X",
",X,X,X,X,X,X,X,XZ #.<.2.,.o.K n.n.n.n.G.:X-X-X;X;X-X-X;X;X;X*XD.n.n.N.L ~ { { { { { { { { { { { { [ / ,X,X,X,X,X,X,X,X,X,X,X,X,X",
",X,X,X,X,X,X,X,XK O.1.2.2.1.X.Z v.N.n.M.'.:X;X;X;X;X;X;X;X;X`.M.M.n.S ~ [ { { { { { { { { { { { ' Y ,X,X,X,X,X,X,X,X,X,X,X,X,X,X",
",X,X,X,X,X,X,Xk v.&.2.2.2.1.:.L Z C L n.M.G.R.`..XXX@X$X$X`.C.v.J Z x ' { { { { { { { { { [ ' R ,X,X,X,X,X,X,X,X,X,X,X,X,X,X,X,X",
",X,X,X,X,X,X,XH @.>.2.2.2.2.:.m.L ,Xf n.n.n.n.n.M.M.B.M.K Z  .&...S +._ { { { { { { [ ] / Y ,X,X,X,X,X,X,X,X,X,X,X,X,X,X,X,X,X,X",
",X,X,X,X,X,X,XL #.5.2.2.2.2.:.@.Z ,X$ L M.M.M.n.n.n.M.n.j.x <.2.<.o.v.! / ( ( / ^ T ,X,X,X,X,X,X,X,X,X,X,X,X,X,X,X,X,X,X,X,X,X,X",
",X,X,X,X,X,Xl v.$.~.3.2.2.2.:.v.c q a n G v.M.n.M.n.M.M.H z &.3.4.o.v.l ,X,X,X,X,X,X,X,X,X,X,X,X,X,X,X,X,X,X,X,X,X,X,X,X,X,X,X,X",
",X,X,X,X,X,XC n.=.^.3.3.2.3.;.K g a g.f.p.m V L n.M.K G m p.M c.~.O.v.A ,X,X,X,X,X,X,X,X,X,X,X,X,X,X,X,X,X,X,X,X,X,X,X,X,X,X,X,X",
",X,X,X,X,X,XZ n.*.^.~.3.3.3.>.J 2 a.g.g.g.g.a.m N C b a.g.g.a.B _.=.v.H ,X,X,X,X,X,X,X,X,X,X,X,X,X,X,X,X,X,X,X,X,X,X,X,X,X,X,X,X",
",X,X,X,X,X,XL n.*.).).).^.^.>.n < i i a p.a.g.a.1 + + e a.a a t m N G H ,X,X,X,X,X,X,X,X,X,X,X,X,X,X,X,X,X,X,X,X,X,X,X,X,X,X,X,X",
",X,X,X,X,X,XK n.*.[.(.[.(.Q.M r.t.t.e.r.t i i e + O O @ t t r.e.q.t.r.d ,X,X,X,X,X,X,X,X,X,X,X,X,X,X,X,X,X,X,X,X,X,X,X,X,X,X,X,X",
",X,X,X,X,X,XK n.$.}.{.{./.M y.y.t.t.y.y.y.t.e.e.< O O , t.b - h y.y.t.t.6 ,X,X,X,X,X,X,X,X,X,X,X,X,X,X,X,X,X,X,X,X,X,X,X,X,X,X,X",
",X,X,X,X,X,XK M.+./.{.{.x.e.t.t.t.t.y.t.y.t.y.y.e.@ O 6 i | v - i.y.t.t.t.7 ,X,X,X,X,X,X,X,X,X,X,X,X,X,X,X,X,X,X,X,X,X,X,X,X,X,X",
",X,X,X,X,X,XJ n.K *.[./.m t.t.y.y.e.r.y u y s e.e.@ # 5 t.; - 6.i.y.t.t.t.y.w.5 ,X,X,X,X,X,X,X,X,X,X,X,X,X,X,X,X,X,X,X,X,X,X,X,X",
",X,X,X,X,X,Xj L N.@.$.%.u.y.t.t.y.8 d 7.8.8.7.y e.@ O 5 y.i h e 7 0.9.t.t.t.y.t.8 ,X,X,X,X,X,X,X,X,X,X,X,X,X,X,X,X,X,X,X,X,X,X,X",
",X,X,X,X,X,X,X,XC Z A r w.t.t.t.t.8 t h = = = p r.+ # , w.8 9.w.0.7 0.6 e.t.t.t.t.r.,X,X,X,X,X,X,X,X,X,X,X,X,X,X,X,X,X,X,X,X,X,X",
",X,X,X,X,X,X,X,X,X,X,X,Xt.t.t.t.e.8 9.8 q.9.7 8 t . . > 8 8 0.5 6 7 t.3 ,X9.t.t.t.t.8 ,X,X,X,X,X,X,X,X,X,X,X,X,X,X,X,X,X,X,X,X,X",
",X,X,X,X,X,X,X,X,X,X,X3 w.i.t.t.0.8 8 4 3 3 4 8 q % . + 0.4 6 6 0.6 t.3 ,X,X6 i.t.e.4 ,X,X,X,X,X,X,X,X,X,X,X,X,X,X,X,X,X,X,X,X,X",
",X,X,X,X,X,X,X,X,X,X,X,X,X,X,X,X,X,X,X,X,X,X,X,X,X,X,X,X,X,X,X,X,X,X,X,X,X,X,X,X,X,X,X,X,X,X,X,X,X,X,X,X,X,X,X,X,X,X,X,X,X,X,X,X"
};
