/* XPM */
static char *result[] = {
/* columns rows colors chars-per-pixel */
"64 64 222 2 ",
"   c #080603",
".  c #071308",
"X  c #22150A",
"o  c #193917",
"O  c #1F2D13",
"+  c #35381F",
"@  c #32351D",
"#  c #2E2A14",
"$  c #1A1B28",
"%  c #0C0B36",
"&  c #181835",
"*  c #262729",
"=  c #373925",
"-  c #252734",
";  c #383B36",
":  c #362E3F",
">  c #5D1A0C",
",  c #451D15",
"<  c #561F13",
"1  c #461C0D",
"2  c #741F0D",
"3  c #4B2418",
"4  c #572317",
"5  c #56301B",
"6  c #7E220F",
"7  c #672213",
"8  c #752413",
"9  c #782815",
"0  c #79351E",
"q  c #68381A",
"w  c #513D25",
"e  c #572921",
"r  c #7E3922",
"t  c #204C1E",
"y  c #3E4224",
"u  c #384229",
"i  c #2A5C28",
"p  c #244F23",
"a  c #326133",
"s  c #414526",
"d  c #444827",
"f  c #464A29",
"g  c #494E2B",
"h  c #45442C",
"j  c #524B2D",
"k  c #554727",
"l  c #4E522D",
"z  c #51552F",
"x  c #525730",
"c  c #555A31",
"v  c #595E33",
"b  c #5A5633",
"n  c #534A3B",
"m  c #66462B",
"M  c #7D4A28",
"N  c #665C39",
"B  c #725535",
"V  c #5D6336",
"C  c #5E6338",
"Z  c #456A3F",
"A  c #606637",
"S  c #616638",
"D  c #646B3A",
"F  c #696F3C",
"G  c #6B6239",
"H  c #6B723E",
"J  c #0E0E46",
"K  c #0E0E48",
"L  c #141341",
"P  c #2A2441",
"I  c #73544C",
"U  c #4F6C50",
"Y  c #6E7540",
"T  c #717641",
"R  c #747B43",
"E  c #797E45",
"W  c #7C7442",
"Q  c #70674B",
"!  c #665A59",
"~  c #88220B",
"^  c #92240C",
"/  c #9D270D",
"(  c #832815",
")  c #882C18",
"_  c #932A14",
"`  c #9C2C14",
"'  c #942D17",
"]  c #96331D",
"[  c #9C321C",
"{  c #8F321D",
"}  c #A3290E",
"|  c #A92A0E",
" . c #B32D0F",
".. c #BA2E0F",
"X. c #A32D14",
"o. c #AA2E14",
"O. c #B32E11",
"+. c #BA2F10",
"@. c #A3351B",
"#. c #AB351C",
"$. c #A83319",
"%. c #B23015",
"&. c #B43419",
"*. c #BC361A",
"=. c #BA381B",
"-. c #943C26",
";. c #893D25",
":. c #A43B21",
">. c #A93B22",
",. c #B33D22",
"<. c #BA3E23",
"1. c #C33111",
"2. c #CB3414",
"3. c #C53A1B",
"4. c #CC3B1C",
"5. c #C73818",
"6. c #D33513",
"7. c #DB3713",
"8. c #D53817",
"9. c #DC3915",
"0. c #D53D1D",
"q. c #DC3D1B",
"w. c #E53B16",
"e. c #EB3B14",
"r. c #E33C19",
"t. c #E23913",
"y. c #CD3F21",
"u. c #C03E22",
"i. c #D23E20",
"p. c #BC431D",
"a. c #864B29",
"s. c #954529",
"d. c #975835",
"f. c #915336",
"g. c #A74829",
"h. c #B34324",
"j. c #BC4126",
"k. c #B84B27",
"l. c #B34D39",
"z. c #B55432",
"x. c #AB5630",
"c. c #9E623B",
"v. c #B16435",
"b. c #B4713E",
"n. c #E8421A",
"m. c #C34024",
"M. c #CA4123",
"N. c #D1542E",
"B. c #E84B22",
"V. c #E5542A",
"C. c #E65C31",
"Z. c #E96537",
"A. c #D1683C",
"S. c #A95D4F",
"D. c #89774B",
"F. c #99774F",
"G. c #967B53",
"H. c #826744",
"J. c #A66A43",
"K. c #AC7144",
"L. c #B97849",
"P. c #B6754A",
"I. c #93716B",
"U. c #DA7847",
"Y. c #D17548",
"T. c #E67948",
"R. c #E56F41",
"E. c #7A8247",
"W. c #7D8549",
"Q. c #798D7E",
"!. c #838B4C",
"~. c #81854A",
"^. c #88904F",
"/. c #87904E",
"(. c #8C9551",
"). c #8F9853",
"_. c #919A54",
"`. c #AA8B5C",
"'. c #A68759",
"]. c #BD8052",
"[. c #B59463",
"{. c #B99563",
"}. c #BC9A68",
"|. c #AF8F60",
" X c #D98549",
".X c #C78755",
"XX c #D58B58",
"oX c #DB935E",
"OX c #D5905C",
"+X c #C59050",
"@X c #E48855",
"#X c #E59359",
"$X c #E68949",
"%X c #D4A35C",
"&X c #C39C68",
"*X c #D59B65",
"=X c #E59C65",
"-X c #E89F67",
";X c #CBA36D",
":X c #C5A26D",
">X c #D6A667",
",X c #CEA871",
"<X c #D3AC73",
"1X c #D9AC74",
"2X c #D6A770",
"3X c #DDB57A",
"4X c #DCB479",
"5X c #E8B667",
"6X c #E5B466",
"7X c #E3BB7F",
"8X c #E2B57A",
"9X c #E4AA71",
"0X c #B38582",
"qX c #AD8C8C",
"wX c #A9AFB0",
"eX c #86958B",
"rX c #E4BD80",
"tX c #BDBDC6",
"yX c #DDDDE8",
"uX c #DFE1EC",
"iX c #EDEFFA",
"pX c None",
/* pixels */
"pXpXpXpXpXpXpXpXpXpXpXpXpXpXpXpXpXpXpXpXpXpXpXpXpXpXpXpXpXpXpXpXpXpXpXpXpXpXpXpXpXpXpXpXpXpX4 pXpXpXpXpXpXpXpXpXpXpXpXpXpXpXpXpX",
"pXpXpXpXpXpXpXpXpXpXpXpXpXpXpXpXpXpXpXpXpXpXpXpXpXpXpXpXpXpXpXpXpXpXpXpXpXpXpXpXpXpXpXpXpX9 >.pXpXpXpXpXpXpXpXpXpXpXpXpXpXpXpXpX",
"pXpXpXpXpXpXpXpXpXpXpXpXpXpXpXpXpXpXpXpXpXpXpXpXpXpXpXpXpXpXpXpXpXpXpXpXpXpXpXpXpXpXpXpXpX:.-.9 pXpXpXpXpXpXpXpXpXpXpXpXpXpXpXpX",
"pXpXpXpXpXpXpXpXpXpXpXpXpXpXpXpXpXpXpX7 -.pXpXpXpXpXpXpXpXpXpXpXpXpXpXpXpXpXpXpXpXpXpXpX) h.;.) pXpXpXpXpXpXpXpXpXpXpXpXpXpXpXpX",
"pXpXpXpXpXpXpXpXpXpXpXpXpXpXpXpXpXpX7 0 ,.:.pXpXpXpXpXpXpXpXpXpXpXpXpXpXpXpXpXpXpXpXpXpXh.p.f.a.pXpXpXpXpXpXpXpXpXpXpXpXpXpXpXpX",
"pXpXpXpXpXpXpXpXpXpXpXpXpXpXpXpXpXpX0 f.-.j.{ pXpXpXpXpXpXpXpXpXpXpXpXpXpXpXpXpXpXpXpX] j.p.d.c.7 pXpXpXpXpXpXpXpXpXpXpXpXpXpXpX",
"pXpXpXpXpXpXpXpXpXpXpXpXpXpXpXpXpXpXr P.s.j.j.) pXpXpXpXpXpXpXpXpXpXpXpXpXpXpXpXpXpX8 j.j.=.b.b.9 pXpXpXpXpXpXpXpXpXpXpXpXpXpXpX",
"pXpXpXpXpXpXpXpXpXpXpXpXpXpXpXpXpXpX;.L.d.,.j.j.) pXpXpXpXpXpXpXpXpXpXpXpXpXpXpXpXpX#.m.4.h.+X X] pXpXpXpXpXpXpXpXpXpXpXpXpXpXpX",
"pXpXpXpXpXpXpXpXpXpXpXpXpXpXpXpXpXpXs.L.K.:.j.j.,.{ pXpXpXpXpXpXpXpXpXpXpXpXpXpXpX` y.M.8.x.%X#X@.pXpXpXpXpXpXpXpXpXpXpXpXpXpXpX",
"pXpXpXpXpXpXpXpXpXpXpXpXpXpXpXpXpXpXl..X].s.u.j.j.<.] pXpXpXpXpXpXpXpXpXpXpXpXpX6 4.i.i.6.b.5X#X@.pXpXpXpXpXpXpXpXpXpXpXpXpXpXpX",
"pXpXpXpXpXpXpXpXpXpXpXpXpXpXpXpXpXpXl.Y..XJ.&.<.j.j.<.>.pXpXpXpXpXpXpXpXpXpXpXpX1.r.r.r.2.+X5X$XX.pXpXpXpXpXpXpXpXpXpXpXpXpXpXpX",
"pXpXpXpXpXpXpXpXpXpXpXpXpXpXpXpXpXpXz..X*X.Xg.y.m.m.u.y.y._ pXpXpXpXpXpXpXpXpX} r.r.e.e.p.%X5X$X` pXpXpXpXpXpXpXpXpXpXpXpXpXpXpX",
"pXpXpXpXpXpXpXpXpXpXpXpXpXpXpXpXpXpXz.XXOXoXJ.3.M.y.y.i.q.q.+.2 X.1.2.| O.2.6.e.e.e.e.e.k.%X5X$X^ pXpXpXpXpXpXpXpXpXpXpXpXpXpXpX",
"pXpXpXpXpXpXpXpXpXpXpXpXpXpXpXpXpXpXk.#X*XoXXXg.q.q.q.r.w.r.e.8.t.e.e.e.e.e.e.e.e.e.e.e.p.6X6X XpXpXpXpXpXpXpXpXpXpXpXpXpXpXpXpX",
"pXpXpXpXpXpXpXpXpXpXpXpXpXpXpXpXpXpXh.@X=X=X=XL.3.w.r.e.e.e.e.e.w.e.e.e.e.e.e.e.e.e.e.e.5.].6XU.pXpXpXpXpXpXpXpXpXpXpXpXpXpXpXpX",
"pXpXpXpXpXpXpXpXpXpXpXpXpXpXpXpXpXpXh.@X=X=X=X*Xh.e.e.e.e.e.e.e.e.e.e.r.w.9.r.r.r.r.8.t.t.5.v.v.pXpXpXpXpXpXpXpXpXpXpXpXpXpXpXpX",
"pXpXpXpXpXpXpXpXpXpXpXpXpXpXpXpXpXpX@.@X=X=X-XP.8.e.e.e.e.e.9.2.4.2.3.o.` %.q.q.q.q.*._ 2 2 > 1 pXpXpXpXpXpXpXpXpXpXpXpXpXpXpXpX",
"pXpXpXpXpXpXpXpXpXpXpXpXpXpXpXpXpXpX-.T.=X-XXX3.e.e.e.e.8.X.6 ~ ( ( _ $.3.q.q.q.q.q.r.0.5.*.#._ > pXpXpXpXpXpXpXpXpXpXpXpXpXpXpX",
"pXpXpXpXpXpXpXpXpXpXpXpXpXpXpXpXpXpX{ U.-X>Xx.t.e.e.w.8.%.*.4.i.8.i.i.r.i.r.q.q.0.q.r.r.r.q.q.r.&.pXpXpXpXpXpXpXpXpXpXpXpXpXpXpX",
"pXpXpXpXpXpXpXpXpXpXpXpXpXpXpXpXpXpX( A.-XY.3.e.e.e.r.8.i.r.i.r.r.r.w.w.w.w.q.q.0.q.r.w.w.r.w.t.4.8 pXpXpXpXpXpXpXpXpXpXpXpXpXpX",
"pXpXpXpXpXpXpXpXpXpXpXpXpXpXpXpXpXpX2 A.=Xz.t.e.e.e.w.w.r.w.w.t.6.6.e.e.e.e.r.i.0.q.r.e.e.e.e.e.r.` pXpXpXpXpXpXpXpXpXpXpXpXpXpX",
"pXpXpXpXpXpXpXpXpXpXpXpXpXpXpXpXpXpXpXN.XX4.e.e.e.e.e.e.e.e.1.O.1.7.7.2.e.r.q.0.i.0.r.r.e.9.2.1.9.=.pXpXpXpXpXpXpXpXpXpXpXpXpXpX",
"pXpXpXpXpXpXpXpXpXpXpXpXpXpXpXpXpXpXpX=.C.e.e.e.e.e.e.e.e.+.1.w.e.e.t.+.6.e.r.i.i.i.q.e.6.O.2.9.+.5.( pXpXpXpXpXpXpXpXpXpXpXpXpX",
"pXpXpXpXpXpXpXpXpXpXpXpXpXpXpXpXpXpXpX} n.e.e.e.e.e.e.e.1.1.r.i.i.i.i.2.O.w.r.q.i.i.q.t.O.0.i.i.8.%.#.pXpXpXpXpXpXpXpXpXpXpXpXpX",
"pXpXpXpXpXpXpXpXpXpXpXpXpXpXpXpXpXpXpX^ e.e.e.e.e.e.e.t.o.i.i.y.y.y.y.i.o.7.r.i.i.i.i.2.y.y.y.y.i.%.=.8 pXpXpXpXpXpXpXpXpXpXpXpX",
"pXpXpXpXpXpXpXpXpXpXpXpXpXpXpXpXpXpXpX^ e.e.e.e.e.e.e.1.3.y.#.[ { { [ ,.&.1.w.r.y.y.i.%.<.[ ' -.#.X.*.$.pXpXpXpXpXpXpXpXpXpXpXpX",
"pXpXpXpXpXpXpXpXpXpXpXpXpXpXpXpXpXpXpX| e.e.e.e.e.e.e. .) e n = O     # e X.w.r.i.y.i._ 3 X   # ! H.2.4.pXpXpXpXpXpXpXpXpXpXpXpX",
"pXpXpXpXpXpXpXpXpXpXpXpXpXpXpXpXpXpXpX1.e.e.e.e.e.e.e.} n tXyXQ.i     o U -.w.r.i.i.i.X.= o . p wX0X7.r.` pXpXpXpXpXpXpXpXpXpXpX",
"pXpXpXpXpXpXpXpXpXpXpXpXpXpXpXpXpXpXpX1.e.e.e.e.e.e.e.6.S.uXiXwXa p o i ! y.e.r.i.i.i.y.n a a U tXl.e.e.4.7 pXpXpXpXpXpXpXpXpXpX",
"pXpXpXpXpXpXpXpXpXpXpXpXpXpXpXpXpXpXpX/ e.e.e.e.e.t.w.e.4.0XyXuXeXa U ! f.e.e.r.r.i.i.i.-.I.I.I.l.4.e.e.4.pXpXpXpXpXpXpXpXpXpXpX",
"pXpXpXpXpXpXpXpXpXpXpXpXpXpXpXpXpXpXpXpX7.e.e.e.e.e.e.w.r.4.S.0XqXqXI.h.t.e.e.e.r.r.i.q.4.o.i.4.q.i.w.w.o.pXpXpXpXpXpXpXpXpXpXpX",
"pXpXpXpXpXpXpXpXpXpXpXpXpXpXpXpXpXpXpXpX1.e.e.e.e.e.w.w.r.w.t.8.4.M.9.w.e.e.e.e.w.e.r.i.4.X.&.u.N.C.e.u.pXpXpXpXpXpXpXpXpXpXpXpX",
"pXpXpXpXpXpXpXpXpXpXpXpXpXpXpXpXpXpXpXpX/ e.e.e.e.V.T.V.n.w.r.w.n.9.r.r.e.w.e.e.e.w.q._ 4 < , m Y.B.,.pXpXpXpXpXpXpXpXpXpXpXpXpX",
"pXpXpXpXpXpXpXpXpXpXpXpXpXpXpXpXpXpXpXpXpX..t.e.e.V.9X9X=XY.g.M.Z.Z.#X#X#X@XR.B.e.e.X., 4 4 3 3 ,.[ pXpXpXpXpXpXpXpXpXpXpXpXpXpX",
"pXpXpXpXpXpXpXpXpXpXpXpXpXpXpXpXpXpXpXpXpXpX^ 6.e.e.#X7X7XrX,X'.;X7XrXrXrX7X7X9X@XV.8 , , 3 , , > pXpXpXpXpXpXpXpXpXpXpXpXpXpXpX",
"pXpXpXpXpXpXpXpXpXpXpXpXpXpXpXpXpXpXpXpXpXpXpXpX1.e.Z.7X7X7X7X1X`.}.4XrX7X7X7X7XrX1XF.B m m H.w pXpXpXpXpXpXpXpXpXpXpXpXpXpXpXpX",
"pXpXpXpXpXpXpXpXpXpXpXpXpXpXpXpXpXpXpXpXpXpXpXpXpX1.n.-XrX7X7X7X4X}.`.[.1X7XrXrXrXrXrX<XF.`.G.pXpXpXpXpXpXpXpXpXpXpXpXpXpXpXpXpX",
"pXpXpXpXpXpXpXpXpXpXpXpXpXpXpXpXpXpXpXpXpXpXpXpXpXpX6.@XrX7XrX7XrXrX4X}.`.`.[.&X:X&X[.'.{.D.pXpXpXpXpXpXpXpXpXpXpXpXpXpXpXpXpXpX",
"pXpXpXpXpXpXpXpXpXpXpXpXpXpXpXpXpXpXpXpXpXpXpXpXpXpX..T.rX7X7X7XrX7XrX7X3X2X&X[.[.[.}.&X`.pXpXpXpXpXpXpXpXpXpXpXpXpXpXpXpXpXpXpX",
"pXpXpXpXpXpXpXpXpXpXpXpXpXpXpXpXpXpXpXpXpXpXpXpXpXpX^ T.rX7XrX7X7XrX7XrX7X4X1X}.G.G N b = pXpXpXpXpXpXpXpXpXpXpXpXpXpXpXpXpXpXpX",
"pXpXpXpXpXpXpXpXpXpXpXpXpXpXpXpXpXpXpXpXpXpXpXpXpXpXq U.7X7XrX7X7X7X7X3X8X1X*X*XD.l Y S g l y = pXpXpXpXpXpXpXpXpXpXpXpXpXpXpXpX",
"pXpXpXpXpXpXpXpXpXpXpXpXpXpXpXpXpXpXpXpXpXpXpXpXpXf m A.7X7X7X7X7XrXrX3X4X1X*X[.b v Y Y E.).E.g x d pXpXpXpXpXpXpXpXpXpXpXpXpXpX",
"pXpXpXpXpXpXpXpXpXpXpXpXpXpXpXpXpXpXpXpXpXpXpXc S H z z.7X7X7X7XrXrX3X3X1X1X;XH.z E D Y (.(.W.D g V l pXpXpXpXpXpXpXpXpXpXpXpXpX",
"pXpXpXpXpXpXpXpXpXpXpXpXpXpXpXpXpXpXd z l C W.(.H ^.F c.7X7XrX7XrX8X7X8X1X>X`.j x R Y W.^.^.W.D c D !.g pXpXpXpXpXpXpXpXpXpXpXpX",
"pXpXpXpXpXpXpXpXpXpXpXpXpXpXpX+ z C D H F Y /.!.E.).!.`.3XrXrX7X3XrXrX4X2X&XN z x V E.R Y ).D v Y R !.l pXpXpXpXpXpXpXpXpXpXpXpX",
"pXpXpXpXpXpXpXpXpXpXpXpXpXpXd V D S S S D T W.R !._.^.~.4X3X7X7XrX7X8X1X*XW z z x z E.V C R x z V V F l + pXpXpXpXpXpXpXpXpXpXpX",
"pXpXpXpXpXpXpXpXpXpXpXpX+ x D V S C D H H H R H (.)._.E.[.3X7X7X7X8X3X;XD.x c c C x V z x x l v v D E.g = pXpXpXpXpXpXpXpXpXpXpX",
"pXpXpXpXpXpXpXpXpXpXpXl C H H D C C D R !.E.T S (._.).Y D.<XrXrXrX4X[.N Q c z c z l x z x y x D D D _.E.= pXpXpXpXpXpXpXpXpXpXpX",
"pXpXpXpXpXpXpXpXpXD R Y Y Y Y Y D C H E./.)./.H W._.W.E.!.'.4XrX7X,XN x V c c v d c c z g f V W.S R _.).c pXpXpXpXpXpXpXpXpXpXpX",
"pXpXpXpXpXpXpXpXk (.!.R R R R R E.D H !.).)./.E.D W.E./.).D.<X3X7X,Xv V V v c l y c z z y F W.(.R !._.).D pXpXpXpXpXpXpXpXpXpXpX",
"pXpXpXpXpXpXpX' a./.E./.!.W.W.W.!.H R /./.W.!.D x E././.D T ;X3X7X<Xj l V V V g g z z f z D V F F T T H x pXpXpXpXpXpXpXpXpXpXpX",
"pXpXpXpXpXpXO.4.M R W._._.).(.W./.E.E.W.E.E.R F x Y W.V c x [.4X7X,Xg y V V V g l c v g V V v V c A S Y c pXpXpXpXpXpXpXpXpXpXpX",
"pXpXpXpXpX2.e.y.M E.E.)._.(.(.(.).W.E.F D C D H x H E.= C V G.4X3X,Xg s V V c f c v c l H c c H !.!.!.(.x pXpXpXpXpXpXpXpXpXpXpX",
"pXpXpXpX^ t.w.4.M R R !.).E.E.R E.E.V D V V V D V H V * u V W <X3X;Xf + l c l y V c f l v z z c !._._.(.pXpXpXpXpXpXpXpXpXpXpXpX",
"pXpXpXpXpXt.e.0.a.T R E.(.E R W.R V V F H D V F V C V z * ; A }.}.G.* $ l V v g v z y z c v z c R _._.!.pXpXpXpXpXpXpXpXpXpXpXpX",
"pXpXpXpXpX6.e.q.s.T R R ^.W.R R H D F E.E.V V D C l v F g $ & : P & J $ g V z l V l y c c c V R W.E.(.W.pXpXpXpXpXpXpXpXpXpXpXpX",
"pXpXpXpXpX+.e.w.#.W ~.H ^.!.F D D D V D V D V D F c g E.C & K J K K % = l v h c c y l z c c V /._.)._.E.pXpXpXpXpXpXpXpXpXpXpXpX",
"pXpXpXpXpX} e.e.M.a.(.H W.H V c V V D V V H H H H F V E.R & K K K K & h g x d c z y c z c V c V H W.).R pXpXpXpXpXpXpXpXpXpXpXpX",
"pXpXpXpXpX~ t.e.q.g.H E E H D z c V D V F E.H D H H H W.E.- K K K K - z = = l c f g v c z V v c x x Y T pXpXpXpXpXpXpXpXpXpXpXpX",
"pXpXpXpXpXpX6.e.n.4.a.!.E.E H D g V D D D D D D F F H H H ; J K K & g b l d l x y V F z c R /.D c l v D pXpXpXpXpXpXpXpXpXpXpXpX",
"pXpXpXpXpXpX1.e.n.t.p.B W.R E H z c C E.Y H D H F H H H E.x % % % = D D V d x l y c c z c C ).).E.H T H pXpXpXpXpXpXpXpXpXpXpXpX",
"pXpXpXpXpXpX| e.e.n.7.g.G R R H V c D H H F D F H H H H T S & J - R W.E.f x V d g z c v z x E._._._._.H pXpXpXpXpXpXpXpXpXpXpXpX",
"pXpXpXpXpXpX~ t.e.e.n.8.] H E.H V V H H H F F F H Y H H C u L K ; ).W.V l H V y c v c V v v H /.W.R E.C pXpXpXpXpXpXpXpXpXpXpXpX",
"pXpXpXpXpXpXpX}  ... .o._ w A A l l V V c c l z c z c c d * % % * F x @ l c d @ y d y y d d l l l l f + pXpXpXpXpXpXpXpXpXpXpXpX"
};
