/* XPM */
static char *result[] = {
/* columns rows colors chars-per-pixel */
"64 64 76 1 ",
"  c #79493C",
". c #4E4F4A",
"X c #544F49",
"o c #54524E",
"O c #5C524C",
"+ c #545552",
"@ c #5B5651",
"# c #575955",
"$ c #5A5955",
"% c #5C5E5A",
"& c #654941",
"* c #704C42",
"= c #65534C",
"- c #725046",
"; c #635651",
": c #645B56",
"> c #635E5A",
", c #695F59",
"< c #725D54",
"1 c #7E5D54",
"2 c #5D615D",
"3 c #64635D",
"4 c #6B635C",
"5 c #786057",
"6 c #73675F",
"7 c #7D675F",
"8 c #5F6361",
"9 c #646662",
"0 c #696761",
"q c #656865",
"w c #6A6A65",
"e c #646A69",
"r c #6B6E6B",
"t c #716B66",
"y c #736F69",
"u c #6D716D",
"i c #71726D",
"p c #7A736D",
"a c #6D7372",
"s c #727673",
"d c #757976",
"f c #7B7B75",
"g c #757B7A",
"h c #7B7E7A",
"j c #816F66",
"k c #847069",
"l c #90736A",
"z c #847B75",
"x c #8A7F78",
"c c #947B72",
"v c #7E817D",
"b c #81837F",
"n c #99847D",
"m c #7D8482",
"M c #838582",
"N c #848985",
"B c #898A86",
"V c #868B8A",
"C c #898D8A",
"Z c #908B87",
"A c #928D89",
"S c #8C918E",
"D c #92928F",
"F c #99928F",
"G c #8D9492",
"H c #919694",
"J c #939996",
"K c #9B9894",
"L c #959C9B",
"P c #9A9E9C",
"I c #A09996",
"U c #9CA19F",
"Y c #979FA0",
"T c #989FA0",
"R c #9BA2A2",
"E c None",
/* pixels */
"EEEEEE+8ghEEEEEEEEEEEEEEEEEEEEEEEEEEEEo:dfEEEEEEEEEEEEEEEEEEEEEE",
"EEEEEE$dvwEEEEEEEEEEEEEEEEEEEEEEEEEEEE@sh0EEEEEEEEEEEEEEEEEEEEEE",
"EEEEEEhs@8EEEEEEEEEEEEEEEEEEEEEEEEEEEEmaO3EEEEEEEEEEEEEEEEEEEEEE",
"EEEEEvwEE+aEEEEEEEEEEEEEEEEEEEEEEEEEEviEE$gEEEEEEEEEEEEEEEEEEEEE",
"EEEFz4EEEE+gCEEEEEEEEEEEEEEEEEEEEEEJV0EEEE$sVEEEEEEEEEEEEEEEEEEE",
"EERZ<EEEEEE%hGEEEEEEEEEEEEEEEEEEEERB0EEEEEE+gGEEEEEEEEEEEEEEEEEE",
"ERM4EEEEEEEE%pcEEEEEEEEEEEEEEEEEERM0EEEEEEEE$sGEEEEEEEEEEEEEEEEE",
"JfEEEEEEEEEEEE*cEEEEEEEEEEEEEEEELzEEEEEEEEEEEEiGEEEEEEEEEEEEEEEE",
"rEEEEEEEEEEEEEE4MUEEEEEEEEEEEERSiEEEEEEEEEEEEEE0CREEEEEEEEEEEERG",
"EEEEEEEEEEEEEEEE3MPEEEEEEEEEELVtEEEEEEEEEEEEEEEE3vUEEEEEEEEEEGv0",
"EEEEEEEEEEEEEEEEEEfJEEEEEEEEVfEEEEEEEEEEEEEEEEEEEEsJEEEEEEEENuEE",
"EEEEEEEEEEEEEEEEEEEuCREEEEmg0EEEEEEEEEEEEEEEEEEEEEErCREEEEmd9EEE",
"EEEEEEEEEEEEEEEEEEEEwNGEEge#EEEEEEEEEEEEEEEEEEEEEEEEqhSEEd9+EEEE",
"EEEEEEEEEEEEEEEEEEEEEErgg8EEEEEEEEEEEEEEEEEEEEEEEEEEEEwgs%EEEEEE",
"EEEEEEEEEEEEEEEEEEEEEEea3OEEEEEEEEEEEEEEEEEEEEEEEEEEEEqr2.EEEEEE",
"EEEEEEEEEEEEEEEEEEEEEE9<*tEEEEEEEEEEEEEEEEEEEEEEEEEEEEee2eEEEEEE",
"EEEEEEEEEEEEEEEEEEEEEE& jtEEEEEEEEEEEEEEEEEEEEEEEEEEEEo:adEEEEEE",
"EEEEEEEEEEEEEEEEEEEEEE=pj4EEEEEEEEEEEEEEEEEEEEEEEEEEEE@rd0EEEEEE",
"EEEEEEEEEEEEEEEEEEEEEEmh=>EEEEEEEEEEEEEEEEEEEEEEEEEEEEhrX%EEEEEE",
"EEEEEEEEEEEEEEEEEEEEEmsEE+aEEEEEEEEEEEEEEEEEEEEEEEEEEhqEE.uEEEEE",
"EEEEEEEEEEEEEEEEEEELVwEEEE#dCEEEEEEEEEEEEEEEEEEEEEELm0EEEE+hCEEE",
"EEEEEEEEEEEEEEEEEERV0EEEEEE%fZEEEEEEEEEEEEEEEEEEEEUV3EEEEEE%hGEE",
"EEEEEEEEEEEEEEEEERM0EEEEEEEE;fJEEEEEEEEEEEEEEEEEELb4EEEEEEEE$hLE",
"EEEEEEEEEEEEEEEEJfEEEEEEEEEEEEiHEEEEEEEEEEEEEEEELfEEEEEEEEEEEEiS",
"SUEEEEEEEEEEEERSiEEEEEEEEEEEEEEwCIEEEEEEEEEEEELCiEEEEEEEEEEEEEE0",
">hLEEEEEEEEEEGVyEEEEEEEEEEEEEEEE4tnEEEEEEEEEEGh4EEEEEEEEEEEEEEEE",
"EEvJEEEEEEEEhwEEEEEEEEEEEEEEEEEEEE6HEEEEEEEEmuEEEEEEEEEEEEEEEEEE",
"EEEuDREEEEma$EEEEEEEEEEEEEEEEEEEEEEwCREEEEMi2EEEEEEEEEEEEEEEEEEE",
"EEEE0vCEEgq+EEEEEEEEEEEEEEEEEEEEEEEEwBGEEhw+EEEEEEEEEEEEEEEEEEEE",
"EEEEEE9da2EEEEEEEEEEEEEEEEEEEEEEEEEEEE0gg%EEEEEEEEEEEEEEEEEEEEEE",
"EEEEEE9r%.EEEEEEEEEEEEEEEEEEEEEEEEEEEEere+EEEEEEEEEEEEEEEEEEEEEE",
"EEEEEEe2%rEEEEEEEEEEEEEEEEEEEEEEEEEEEEee%wEEEEEEEEEEEEEEEEEEEEEE",
"EEEEEE+$rsEEEEEEEEEEEEEEEEEEEEEEEEEEEE$,sdEEEEEEEEEEEEEEEEEEEEEE",
"EEEEEEXri3EEEEEEEEEEEEEEEEEEEEEEEEEEEE$fmrEEEEEEEEEEEEEEEEEEEEEE",
"EEEEEEgro%EEEEEEEEEEEEEEEEEEEEEEEEEEEEmdO3EEEEEEEEEEEEEEEEEEEEEE",
"EEEEEmwEE+dEEEEEEEEEEEEEEEEEEEEEEEEEEmiEE#dEEEEEEEEEEEEEEEEEEEEE",
"EEEYNqEEEE#gGEEEEEEEEEEEEEEEEEEEEEELN0EEEE$dVEEEEEEEEEEEEEEEEEEE",
"EELN0EEEEEE$dGEEEEEEEEEEEEEEEEEEEELV0EEEEEE+dGEEEEEEEEEEEEEEEEEE",
"ERM3EEEEEEEE$dJEEEEEEEEEEEEEEEEEERM3EEEEEEEE+sJEEEEEEEEEEEEEEEEE",
"PfEEEEEEEEEEEEgJEEEEEEEEEEEEEEEEJhEEEEEEEEEEEEuSEEEEEEEEEEEEEEEE",
"iEEEEEEEEEEEEEEwCUEEEEEEEEEEEEUSiEEEEEEEEEEEEEE0BUEEEEEEEEEEEERJ",
"EEEEEEEEEEEEEEEE3zKEEEEEEEEEEGh4EEEEEEEEEEEEEEEE>vPEEEEEEEEEEHbw",
"EEEEEEEEEEEEEEEEEEylEEEEEEEEmrEEEEEEEEEEEEEEEEEEEEsHEEEEEEEEvrEE",
"EEEEEEEEEEEEEEEEEEE=xIEEEEmd3EEEEEEEEEEEEEEEEEEEEEErCREEEEMs3EEE",
"EEEEEEEEEEEEEEEEEEEE4MCEEg9XEEEEEEEEEEEEEEEEEEEEEEEEwmGEEhwoEEEE",
"EEEEEEEEEEEEEEEEEEEEEE4kd%EEEEEEEEEEEEEEEEEEEEEEEEEEEEega2EEEEEE",
"EEEEEEEEEEEEEEEEEEEEEE6t,XEEEEEEEEEEEEEEEEEEEEEEEEEEEEereXEEEEEE",
"EEEEEEEEEEEEEEEEEEEEEE9:=wEEEEEEEEEEEEEEEEEEEEEEEEEEEE89>yEEEEEE",
"EEEEEEEEEEEEEEEEEEEEEEO=rsEEEEEEEEEEEEEEEEEEEEEEEEEEEE@;riEEEEEE",
"EEEEEEEEEEEEEEEEEEEEEE=dvwEEEEEEEEEEEEEEEEEEEEEEEEEEEEOud0EEEEEE",
"EEEEEEEEEEEEEEEEEEEEEEhs@8EEEEEEEEEEEEEEEEEEEEEEEEEEEEmi=>EEEEEE",
"EEEEEEEEEEEEEEEEEEEEEmrEE#dEEEEEEEEEEEEEEEEEEEEEEEEEEhrEE#dEEEEE",
"EEEEEEEEEEEEEEEEEEEJNwEEEE#dVEEEEEEEEEEEEEEEEEEEEEELmqEEEE#dVEEE",
"EEEEEEEEEEEEEEEEEELN3EEEEEE$gGEEEEEEEEEEEEEEEEEEEELC0EEEEEE$dZEE",
"EEEEEEEEEEEEEEEEEPv3EEEEEEEE$dJEEEEEEEEEEEEEEEEEELh0EEEEEEEE@5cE",
"EEEEEEEEEEEEEEEEJfEEEEEEEEEEEEdJEEEEEEEEEEEEEEEEJfEEEEEEEEEEEE6H",
"SREEEEEEEEEEEERGiEEEEEEEEEEEEEEwCREEEEEEEEEEEEYGiEEEEEEEEEEEEEEw",
"3hLEEEEEEEEEEGv0EEEEEEEEEEEEEEEE3bLEEEEEEEEEEGv0EEEEEEEEEEEEEEEE",
"EEiGEEEEEEEEhrEEEEEEEEEEEEEEEEEEEEsJEEEEEEEEmrEEEEEEEEEEEEEEEEEE",
"EEEwMPEEEEhr#EEEEEEEEEEEEEEEEEEEEEEiCREEEEma2EEEEEEEEEEEEEEEEEEE",
"EEEE0hGEEg9.EEEEEEEEEEEEEEEEEEEEEEEE0mSEEgeoEEEEEEEEEEEEEEEEEEEE",
"EEEEEEegd%EEEEEEEEEEEEEEEEEEEEEEEEEEEE2dr+EEEEEEEEEEEEEEEEEEEEEE",
"EEEEEEeae.EEEEEEEEEEEEEEEEEEEEEEEEEEEEer2.EEEEEEEEEEEEEEEEEEEEEE",
"EEEEEEaaerEEEEEEEEEEEEEEEEEEEEEEEEEEEEarewEEEEEEEEEEEEEEEEEEEEEE"
};
