/* XPM */
static char *result[] = {
/* columns rows colors chars-per-pixel */
"64 64 43 1 ",
"  c #52A700",
". c #54AA02",
"X c #5AAE02",
"o c #5DB201",
"O c #63B503",
"+ c #66BA02",
"@ c #6BBC01",
"# c #6DBD0A",
"$ c #70BF04",
"% c #70BE09",
"& c #6EC102",
"* c #74C402",
"= c #79C602",
"- c #77C803",
"; c #7CCA03",
": c #73C20B",
"> c #7BC60C",
", c #7DCA0B",
"< c #75C210",
"1 c #7BC611",
"2 c #7DC911",
"3 c #82CE03",
"4 c #82CD0B",
"5 c #88CF0C",
"6 c #85D201",
"7 c #8AD402",
"8 c #8ED803",
"9 c #86D10A",
"0 c #8BD40B",
"q c #91D704",
"w c #93DA03",
"e c #9ADD03",
"r c #91D70C",
"t c #94DA0A",
"y c #84CD12",
"u c #85D010",
"i c #8CD411",
"p c #96DA11",
"a c #A0DF04",
"s c #9EE006",
"d c #A3E305",
"f c #AAE504",
"g c #A7E509",
/* pixels */
"66666&O&@+@@@+X3e;7666677-*6666636666@+&+@@@@+o7t36666686,106669",
"=6666#o&##@@@**9;-6666;884*-6673-6766+O@@@@@@&*0=;6663;qry-;6673",
";6666X+&$*@++@;3-*;=;7*;w3=;=37*;666;X@&&&@++@6;**3*36@5p9;;*60$",
"6667-+;778w7=@;;@@-*6-;*78=73-;$6666&+677ww6=+3*+**=6-,,t6=7;;**",
"6666;79;6;*#++;@*==;3@=37q3667*;66663793;;:@+@=@*;,3,%44773766*3",
"6,666;&OX  .O@3@--304$367767667393666*#OX  .o==@=;3r,>3777637366",
"6666;+oXXo++&@;;663ri>637d736733667;;+oXoO+@@*;;660p;*737d766666",
"666;*&+@+&&+&;3666005366*3e6666=67,@*+++@@@+*;66690r0336*7w67667",
"667336;;-=**;669;4y5437633q7767;*6@;69;;--&*66663=;3337636867366",
"6667776667w7666632,===*3666733776-*67666788636663===,=*;73663777",
"66637766876;66-,i,;;3=*$3666777766;67666w6;666*33==33=**66667776",
"6677;6;*;-;66;:<4;66373666733;666670;6;;,-666-+*333637666666;;60",
"6667;666;6;;&2##&*-*-673=376=;736667666;-6;-+;++@=,$;66;;666*;76",
"667776666-&&u2#@@@@@*;;==776=3q766876666;*@=,&+&+@@@*;;;-776-6q6",
"6ee7666696&&,,@*-+@;,@667q3=3=776ew766668;&&,*+-*+@3:&7678;-3-w7",
"7t=3666;&9;+@@#+9*o0O@737337633qw7*6666-&0;+&@@&7#O7o=7673366;67",
"7;;69;6=+&&&&&++-6-;o;66607673366;36;-6&+&--&&&+-6=*O376667666;7",
"6666-+-;&&++&--+@66;&66636ew37666766*&;-+&+-&;&&*67**73666666666",
"6666&&@,&+;;o;6&@;6669666*3e77766766&&&-&+;;+;-+&666666676666663",
"6666*@&+&&;w&;;&-777666773;q77676666&+&&&+;;-;-&-8766363;663676@",
"66666-&*;;-;;8-&688887;-=66773377666;-&--;-;;s--7wqwq667*=667w**",
"66669;7dss8;;8;;;=--;6;;=;733670,&-9p,8s888;;8;;;===46676*-68;+;",
"666667t;;;8;8;8;-;666667766663*+@@@:<98-;88;;;;8*367336766&;6&&6",
"666666;-;;;8;8;8;;9666677=3673**@@#:&&+&-;88s;8;-6667766666;,@;6",
"6666666666668;883;66666-@@$77=;t&#:<9*&;;8;8;8;8;;;8;8;86666;&66",
"666666668--;;-;86366666*$+37*+@74%#*6666;-;;;;;s;;8;8;8;66666;66",
"66666666;&;78-;8766666673=6*&&#,i%=;6667;-;;;-;888;8;8;866666666",
"66666667-;67;-8;676666666763669y66676666;;88;;8;;88;8;8;66666666",
"66666666;78;8;;86666666666690r6666666666;8;88;888;8;;8;866666666",
"6666666666;88;8;6666666666660r0666666666;88;;;;;;8;88;8;;6666666",
"66666666668;;8;8666666;366669736666666668;8;8;8;8;8;86;;8;666666",
"6666666666;88;8;6666687;6963377666666666;8;8;8;8;8;8;s;;88666666",
"66666666666666666qq3667=6666666666666666666666666e6;673=76666666",
"666666666666666637e=673=677766666666666666666666;we-663=77776666",
"666666666;36;676667q6737866tew76;666;8666;66;6666677666w736www66",
"666667;66;6**eewq7633335*;36;6qw76668;;8636&;eewqq363;3-*66366w7",
"6666w3=73-**ageqqq7373=$6;***&*-6;8;8--6--&-fdw7qw337,;=6-&&*@*;",
";6677-*;@@+7t-;377776673;**366;-;8;78---@+&w0-;63777097;;&=366;=",
";6676=**++*,OOO;eq766677-=*366667668;&-&++*;+o+3ew700776;-=66663",
"66767&O@@+@@@+X3q36676387;$3666666666+&&@@@@@+ow7;0i033q6-*66637",
"-7666&o&+&+&@&*6333337=776*;377;-7;89o+&++&@@&-6-4i963-78;=-667;",
";666,o&&*-&@++;6$@3=37*=w6=3*;7*;766;.&&**&+@@6;>14*66&6w3=6*30@",
"7666-&;68887;@;:@$=$6=3*7q=73==*6668:&77www6>@4<#**-;;;-77=7;;-*",
"6666;8;;-:&++#2&$==3;@=367;776-3666;68;;-:@OO#,&*==6;#;6773666=3",
"6;667*&o   .O:y*=;673@36776766666;66;-+o.  o#1;&;;3q-&36w7666666",
"6666-&oXo++&%:4;66674*633s76666;686-&&oXO++&:<,;7767;-6;6s766666",
"666;&&&&@&+#>93776777367=3e6776=;8;&&&&&+@@+>66667776666*7w67666",
"666666;--==,96663==;=3676;877673-;-;69;;;===6666;=;;;666;6877666",
"666677667tpr73763=====&=6667;3776;-676667wq73663===$;**-6673;677",
"66666739ti,366*=7-=33==*;666777666;6666684;376$37=333-**66377377",
"6668;6y1,-763;#@;;3637676666;=66667669;--;7;3-@*333366776666,;66",
"67;736i04;;=+*+@@*=*=37;-666;;7666966666-6;=@*++$==$-66--677=376",
"766866707=+*9*+*+@+@*;;;;773;;w666w876666*@-3*O*+@@@=>3=3773=686",
"6ss8666767&+-*+*;+@-,+766w3=6-776s77666676@@;$+==O+3:@7768;-3=86",
"8s&;666-@3;@@@@+3>O6O*6666;76337w9=3666*#6-@@@@@9$+7X=7376666;37",
"6;;66-6-@+*@@#@@*6;;O;66687666366;66;=6=+@&@$@@@=7==O76666666636",
"6667*+*4@@+@@3=@@37;-6666;d866363773@@-3@$@@$6$@$36=$66667666667",
"9666*@@-=+33O33@@36666666=;e67766666@@+;$@6=@63+$336766666666673",
"6666*+@+@+=q@6=@,7w76666763777736763*@@+@+33$7=+3q776673-6676qy%",
"66666-@;63$667;+670787,=-666745773673*@333=737$$77qqq667=*63qt$>",
"6666668dew73663;;*=;;336*;6660i0-&-;63edqw63373;;===3337q$$5py#3",
"6666687-=6666667-3766366766609%++&&&+39*36666377=366666676$4i%$6",
"666666;;-6666666;;6666666-;r00=-+&+&&&+@=6667377-366666676334@36",
"66666666666666773;66666-@@:09;;8&@&&6-*;76666777;376666666663$76"
};
