/* XPM */
static char *result[] = {
/* columns rows colors chars-per-pixel */
"64 64 235 2 ",
"   c #0F1116",
".  c #141415",
"X  c #13161B",
"o  c #15181E",
"O  c #1B1B1B",
"+  c #191818",
"@  c #0A0A0D",
"#  c #24221D",
"$  c #1B1E23",
"%  c #161B23",
"&  c #1C2128",
"*  c #1D2838",
"=  c #22252B",
"-  c #2A2A2B",
";  c #272729",
":  c #312F2E",
">  c #2A2C32",
",  c #242A39",
"<  c #2D3139",
"1  c #333333",
"2  c #393735",
"3  c #3C3B3A",
"4  c #373739",
"5  c #37322A",
"6  c #241E15",
"7  c #403D3B",
"8  c #42413F",
"9  c #4F463A",
"0  c #594B2F",
"q  c #62512A",
"w  c #6A5B3A",
"e  c #745F37",
"r  c #7D6836",
"t  c #232E42",
"y  c #283448",
"u  c #363B48",
"i  c #2B3B58",
"p  c #343E52",
"a  c #2A3F61",
"s  c #433F40",
"d  c #384358",
"f  c #2D4266",
"g  c #37496B",
"h  c #374C72",
"j  c #3D527B",
"k  c #37507B",
"l  c #444342",
"z  c #4E4C4A",
"x  c #484747",
"c  c #514E4C",
"v  c #554C45",
"b  c #54514D",
"n  c #5A554E",
"m  c #424958",
"M  c #545354",
"N  c #595553",
"B  c #5D5955",
"V  c #5E5D5B",
"C  c #47505F",
"Z  c #625B55",
"A  c #625E5B",
"S  c #645A44",
"D  c #776949",
"F  c #65615E",
"G  c #6B645D",
"H  c #6B6555",
"J  c #78665E",
"K  c #7D7458",
"L  c #7F714A",
"P  c #475266",
"I  c #575A64",
"U  c #46577A",
"Y  c #565972",
"T  c #5A6174",
"R  c #666462",
"E  c #6B6662",
"W  c #6E6A65",
"Q  c #6C6B6A",
"!  c #686768",
"~  c #736B65",
"^  c #7B6C65",
"/  c #736E6A",
"(  c #786D67",
")  c #75716D",
"_  c #7B736D",
"`  c #6E6D73",
"'  c #646A78",
"]  c #7C7671",
"[  c #7E7A75",
"{  c #7B7B79",
"}  c #747476",
"|  c #6E7073",
" . c #8D763A",
".. c #8E732E",
"X. c #927D44",
"o. c #887958",
"O. c #8A6D50",
"+. c #83746D",
"@. c #847A6D",
"#. c #8C726A",
"$. c #997167",
"%. c #847671",
"&. c #847B75",
"*. c #8B7A73",
"=. c #837D7A",
"-. c #8B7974",
";. c #937B74",
":. c #977C76",
">. c #936D62",
",. c #AB756B",
"<. c #A77D75",
"1. c #B3776E",
"2. c #865D52",
"3. c #958459",
"4. c #9D8545",
"5. c #AA9453",
"6. c #AA965A",
"7. c #A78F4C",
"8. c #988B69",
"9. c #85817E",
"0. c #8B837C",
"q. c #8D8370",
"w. c #93847C",
"e. c #98887B",
"r. c #948B72",
"t. c #AD9C68",
"y. c #AC857C",
"u. c #A4837A",
"i. c #B9857C",
"p. c #A69A77",
"a. c #B1A170",
"s. c #3C5686",
"d. c #465D88",
"f. c #546B98",
"g. c #546A92",
"h. c #6E748B",
"j. c #4B6BA4",
"k. c #5474AD",
"l. c #5A75A8",
"z. c #5675AD",
"x. c #647EAA",
"c. c #6784B7",
"v. c #7086AE",
"b. c #7A95C4",
"n. c #868483",
"m. c #8C8682",
"M. c #8D8984",
"N. c #8D8B8A",
"B. c #858389",
"V. c #938B84",
"C. c #9B8C84",
"Z. c #938E8A",
"A. c #9A8F8A",
"S. c #978681",
"D. c #95918C",
"F. c #9B928C",
"G. c #9C9586",
"H. c #9A9593",
"J. c #9C9894",
"K. c #9D9B99",
"L. c #969493",
"P. c #8A8A90",
"I. c #A88D86",
"U. c #BB8D84",
"Y. c #A1958D",
"T. c #A79789",
"R. c #A39A93",
"E. c #AB9C94",
"W. c #A59E99",
"Q. c #AA9995",
"!. c #B69A94",
"~. c #BA938C",
"^. c #A5A19C",
"/. c #ABA39D",
"(. c #ABA395",
"). c #B2A49B",
"_. c #BCA29C",
"`. c #B5A79B",
"'. c #B3A886",
"]. c #888CA2",
"[. c #949CB3",
"{. c #AAA6A3",
"}. c #ADABAA",
"|. c #A9A6A5",
" X c #B3ABA4",
".X c #B3ADAA",
"XX c #B7AAA4",
"oX c #B4B1AD",
"OX c #B9B2AE",
"+X c #BBB6A6",
"@X c #B6B4B2",
"#X c #BAB6B3",
"$X c #BABAB8",
"%X c #ABAFB9",
"&X c #C28D84",
"*X c #C6958C",
"=X c #C59D94",
"-X c #D29D92",
";X c #CBA39B",
":X c #DAA59A",
">X c #C6A9A2",
",X c #C4B4AD",
"<X c #CDB1AB",
"1X c #C3BBB5",
"2X c #C3BEBA",
"3X c #C9BCB6",
"4X c #D6BBB4",
"5X c #DDB3AA",
"6X c #E8BCB2",
"7X c #E3B0A5",
"8X c #CAC2BD",
"9X c #C4C1BC",
"0X c #D4C3BC",
"qX c #E8C7BE",
"wX c #859DC7",
"eX c #96AACF",
"rX c #BDBEC2",
"tX c #A4B2CC",
"yX c #C5C4C2",
"uX c #CCC6C2",
"iX c #CDC9C5",
"pX c #CCCBCA",
"aX c #C4C6CE",
"sX c #D3CECB",
"dX c #D6CCC3",
"fX c #D8D2CD",
"gX c #D8D7D6",
"hX c #E2DDD9",
"jX c #EAD3C9",
"kX c #E1E0DE",
"lX c #DEDDE0",
"zX c #EAE9E7",
"xX c #F5F2ED",
"cX c #F6F5F1",
"vX c None",
/* pixels */
"vXvXvXvXvXvXvXvXvXvXvXvXvXvXvXvXvXvXvXvXvXvXvXvX@X{ N 7 l A oXvXvXvXvXvXvXvXvXvXvXvXvXvXvXvXvXvXvXvXvXvXvXvXvXvXvXvXvXvXvXvXvXvX",
"vXvXvXvXvXvXvXvXvXvXvXvXvXvXvXvXvXvXvXvXvXvXvXoXQ 8 3 4 3 7 R $XvXvXvXvXvXvXvXvXvXvXvXvXvXvXvXvXvXvXvXvXvXvXvXvXvXvXvXvXvXvXvXvX",
"vXvXvXvXvXvXvXvXvXvXvXvXvXvXvXvXvXvXvXvXvXvXpX} l 4 3 7 u 7 z }.vXvXvXvXvXvXvXvXvXvXvXvXvXvXvXvXvXvXvXvXvXvXvXvXvXvXvXvXvXvXvXvX",
"vXvXvXvXvXvXvXvXvXvXvXvXvXvXvXvXvXvXvXvXvXkXJ.z 8 x b N z l z ^.vXvXvXvXvXvXvXvXvXvXvXvXvXvXvXvXvXvXvXvXvXvXvXvXvXvXvXvXvXvXvXvX",
"vXvXvXvXvXvXvXvXvXvXvXvXvXvXvXvXvXvXvXvXvX$XR l c F W W W B c n.vXvXvXvXvXvXvXvXvXvXvXvXvXvXvXvXvXvXvXvXvXvXvXvXvXvXvXvXvXvXvXvX",
"vXvXvXvXvXvXvXvXvXvXvXvXvXvXvXvXvXvXvXvXvXB.c c E _ _ %.-.) B Q 9XvXvXvXvXvXvXvXvXvXvXvXvXvXvXiXpXzXvXvXvXvXvXvXvXvXvXvXvXvXvXvX",
"vXvXvXvXvXvXvXvXvXvXvXvXvXvXvXvXvXvXvXvXiX} B E _ +.%.-.C.w.F / vXvXvXvXvXvXvXvXvXvXvXvXvX|.L.} ] H.yXvXvXvXvXvXvXvXvXvXvXvXvXvX",
"vXvXvXvXvXvXvXvXvXvXvXvXvXvXvXvXvXvXvXvX@X} ~ _ &.&.*.e.!.Q.%.] vXvXvXvXvXvXvXvXvXvXvXvXD.n.E c c c ) yXvXvXvXvXvXvXvXvXvXvXvXvX",
"vXvXvXvXvXvXvXvXvXvXvXvXvXvXvXvXvXvXvXvX|.] } %.=.=.:.!.XX!.A.H.vXvXvXvXvXvXvXvXvXvXvXD.A.0.( B z x 8 N.vXvXvXvXvXvXvXvXvXvXvXvX",
"vXvXvXvXvXvXvXvXvXvXvXvXvXvXvXvXvXvXvXgXJ.{ &.=.-.;.I.!.>X>X,X1XvXvXvXvXvXvXvXvXvXvXH.R.Q.S.%.E b 8 3 F pXvXvXvXvXvXvXvXvXvXvXvX",
"vXvXvXvXvXvXvXvXvXvXvXvXvXvXvXvXvXvXvXpXK.=.=.&.-.S.~.>X<X<X3XuXvXvXvXvXvXvXvXvXvXvX^.,X).C.%.~ Z x 2 N 9XvXvXvXvXvXvXvXvXvXvXvX",
"vXvXvXvXvXvXvXvXvXvXvXvXvXvXvXvXvXvXvXaXK.n.&.&.:.u.~.>X4X3X1XfXvXvXvXvXvXvXvXvXvXoXfX4X!.:.+.( G c 3 B yXvXvXvXvXvXvXvXvXvXvXvX",
"vXvXvXvXvXvXvXvXvXvXvXvXvXvXvXvXvXvXvXgXK.0.%.-.:.I.U.>X4X3X#XgXvXvXvXvXvXvXvXvX.XiXjX>XT.:.#.^ J c l / fXvXvXvXvXvXvXvXvXvXvXvX",
"vXvXvXvXvXvXvXvXvXvXvXvXvXvXvXvXvXvXvXgX^.B.=.-.:.U.*X;X4XXXXXvXvXvXvXvXvXvXvXvXOXhXqX;XI.:.+.^ R c c H.vXvXvXvXvXvXvXvXvXvXvXvX",
"vXvXvXvXvXvXvXvXvXvXvXvXvXvXvXvXvXvXvXfX|.L.=.-.:.U.*X>X<XQ.#XvXvXvXvXvXvXvXvX{.1XjX6X=XI.-.#.^ A N / iXvXvXvXvXvXvXvXvXvXvXvXvX",
"vXvXvXvXvXvXvXvXvXvXvXvXvXvXvXvXvXvXvXhX}.P.%.%.<.U.&X-XXXR.sXvXvXvXvXvXvXvXvX^.dXqX7X=Xu.;.+.E A _ oXvXvXvXvXvXvXvXvXvXvXvXvXvX",
"vXvXvXvXvXvXvXvXvXvXvXvXvXvXvXvXvXvXvXkX#XL.%.#.<.U.&X=XW.{.vXvXvXvXvXvXvXvXW.W.jX6X:XU.:.#._ G E W.vXvXvXvXvXvXvXvXvXvXvXvXvXvX",
"vXvXvXvXvXvXvXvXvXvXvXvXvXvXvXvXvXvXvXkX.XL.&.#.1.i.&X!.Y.OXvXvXvXvXvXvXvXvXH.,XqX7X=Xy.;.%.^ ( A.dXvXvXvXvXvXvXvXvXvXvXvXvXvXvX",
"vXvXvXvXvXvXvXvXvXvXvXvXvXvXvXvXvXvXvXgX@XK.-.>.<.i.*X/.0.2XvXvXvXvXvXvXvXZ.L.0X7X:XU.<.#.) =.W.2XvXvXvXvXvXvXvXvXvXvXvXvXvXvXvX",
"vXvXvXvXvXvXvXvXvXvXvXvXvXvXvXvXvXvXvXzX$X|.w.$.1.1.>XH.V.uXvXvXvXvXvXvXvXn.R.jX7X-Xi.#.+.=./.uXvXvXvXvXvXvXvXvXvXvXvXvXvXvXvXvX",
"vXvXvXvXvXvXvXvXvXvXvXvXvXvXvXvXvXvXvXxXyX}.C.$.1.i..XM.F.vXvXvXvXvXvXvXZ.=..X6X:X&X<.+.=.XX3XvXvXvXvXvXvXvXvXvXvXvXvXvXvXvXvXvX",
"vXvXvXvXvXvXvXvXvXvXvXvXvXvXvXvXvXvXvXvXyX#X!.,.1.!.L.] F.vXvXvXvXvXvXvX=.=.,X6X*X<.;.A. XuXvXvXvXvXvXvXvXvXvXvXvXvXvXvXvXvXvXvX",
"vXvXvXvXvXvXvXvXvXvXvXvXvXvXvXvXvXvXvXvXpX@XXX<.~..Xn._ F.vXvXvXvXvXvXvX~ m.0X:X<.:.A..XiXvXvXvXvXvXvXvXvXvXvXvXvXvXvXvXvXvXvXvX",
"vXvXvXvXvXvXvXvXvXvXvXvXvXvXvXvXvXvXvXvXsX|.{.U.>X|._ W ) [ M.^.{.vXvX=.W V.0X&X:.A.XXiXvXvXvXvXvXvXvXvXvXvXvXvXvXvXvXvXvXvXvXvX",
"vXvXvXvXvXvXvXvXvXvXvXvXvXvXvXvXvXvXvXvXgX{.{.!.Q.Q W [ ) B z _ W.W.{.W.C.A.0Xy.C.XX3XvXvXvXvXvXvXvXvXvXvXvXvXvXvXvXvXvXvXvXvXvX",
"vXvXvXvXvXvXvXvXvXvXvXvXvXvXvXvXvXvXvXvXgXK.J.m./ H. XoX X/.J.R.Q.R.W.(.D.&.`.I./.8XvXvXvXvXvXvXvXvXvXvXvXvXvXvXvXvXvXvXvXvXvXvX",
"vXvXvXvXvXvXvXvXvXvXvXvXvXvXvXvXvXvXvXvXkX.XL.) 9.W F F &.J. X XF.A.F.A.V.R E w.3XfXvXvXvXvXvXvXvXvXvXvXvXvXvXvXvXvXvXvXvXvXvXvX",
"vXvXvXvXvXvXvXvXvXvXvXvXvXvXvXvXvXvXvXvXvXoXN.{ 7 O ; - - F Z.F.Z.V.0.0.Y.XX`.OX{.vXvXvXvXvXvXvXvXvXvXvXvXvXvXvXvXvXvXvXvXvXvXvX",
"vXvXvXvXvXvXvXvXvXvXvXvXvXvXvXvXvXvXvXvXvX@XJ.N : n.rXpXL.8 Q D.0.0.&.*.F.`.R. X9X#XvXvXvXvXvXvXvXvXvXvXvXvXvXvXvXvXvXvXvXvXvXvX",
"vXvXvXvXvXvXvXvXvXvXvXvXvXvXvXvXvXvXvXvXvX^.D.x @XcXzXgXzX|.A V.=.&.*.*.F._ z 3 / ^.vXvXvXvXvXvXvXvXvXvXvXvXvXvXvXvXvXvXvXvXvXvX",
"vXvXvXvXvXvXvXvXvXvXvXvXvXvXvXvXvXvXvXvXvX X[ B.xXaXv.Y h.rX} 0._ ( _ &.] F 9.E ; F vXvXvXvXvXvXvXvXvXvXvXvXvXvXvXvXvXvXvXvXvXvX",
"vXvXvXvXvXvXvXvXvXvXvXvXvXvXvXvXvXvXvXvXH. XN.W.hXh.< @ d ].=.] ~ G ~ %.{ $XzXxXZ.3 vXvXvXvXvXvXvXvXvXvXvXvXvXvXvXvXvXvXvXvXvXvX",
"vXvXvXvXvXvXvXvXvXvXvXvXvXvXvXvXvXvXvXm.G.L.W.J.|.T & @ , h.=.] ~ ~ G ^ ` Y h.lXzXR vXvXvXvXvXvXvXvXvXvXvXvXvXvXvXvXvXvXvXvXvXvX",
"vXvXvXvXvXvXvXvXvXvXvXvXvXvXvXvXvXvX) [ [ [ [ =.n.M._ E ` B.V.V.&.0.0.w.s @ u [.cXK.vXvXvXvXvXvXvXvXvXvXvXvXvXvXvXvXvXvXvXvXvXvX",
"vXvXvXvXvXvXvX2XxX@Xx M V ) G.+X XvX) ! W R F F W ~ W B _ /.OXq.J +.+.G.( @ , ].xX^.vXvXvXvXvXvXvXvXvXvXvXvXvXvXvXvXvXvXvXvXvXvX",
"vXvXvXvXvXvX[ oXiXiX2 } G.q.D. X{.H.q.b x 4 c Z A E _ _ _ .XiX`.2.>.>.>.!.w.` {.0XV.8XvXvXvXvXvXvXvXvXvXvXvXvXvXvXvXvXvXvXvXvXvX",
"vXvXvXvXvXvX) F._.8Xv G._ 0.@X1X+X Xm.@.{ ; : M A / &.M.e.[ J. X~.>.,.<.3XXXR./.`.^.OXvXvXvXvXvXvXvXvXvXvXvXvXvXvXvXvXvXvXvXvXvX",
"vXvXvXvXvXvXE [ G.A.w 3.3.9XgX'.'.yX(.J J ; x F A Q [ 0.D.0.( ^ +.J E.OX1XS.=.&.*.0.).hXvXvXvXvXvXvXvXvXvXvXvXvXvXvXvXvXvXvXvXvX",
"vXvXvXvXvXvXF ] @.3 0  .(.yX9Xt.t.pX#Xo.D ) iXsXJ.G ) 9.0.D.V.0.>.J ;.Y.(.E.V._ / ] Q.vXvXvXvXvXvXvXvXvXvXvXvXvXvXvXvXvXvXvXvXvX",
"vXvXvXvXvXF D.OXOX9 q 3.p.(.+X5.t.oX[ @. .p.9X,X,X/ F / ] 9.9.M.C.F.Y.E.).E.S._ ~ _ W.vXvXvXvXvXvXvXvXvXvXvXvXvXvXvXvXvXvXvXvXvX",
"vXvXvXvXvXB M./.8X[ q 3.3.3.p.5.p.e.K p. .K M.R. X~ B F W ) ] @.0.w.A.G.C.e.&.~ E _ /.vXvXvXvXvXvXvXvXvXvXvXvXvXvXvXvXvXvXvXvXvX",
"vXvXvXvXvXN ] w.).) n @.L  .5.5.6.4.3.q.r H / q.T.Z z B F G W ~ _ _ &.*.&.+.( E E V.vXvXvXvXvXvXvXvXvXvXvXvXvXvXvXvXvXvXvXvXvXvX",
"vXvXvXvXvXvXF +.@.0 B D r ..7.a.7...L 9.n 1 / G.T.7 1 x n F W ~ J ( ^ ^ ~ E W [ D.vXvXvXvXvXvXvXvXvXvXvXvXvXvXvXvXvXvXvXvXvXvXvX",
"vXvXvXvXvXvX{ m.F 0 w e ..4.t.p.6.....q.[ # G +Xv.g d d x V / / ~ ~ G G G W vXvXvXvXvXvXvXvXvXvXvXvXvXvXvXvXvXvXvXvXvXvXvXvXvXvX",
"vXvXvXvXvXF N.(.(.0 w w L o.q.p.8.X.r r G.2 q.vXvXk f f k T Q &.q.~ 3 vXvXvXvXvXvXvXvXvXvXvXvXvXvXvXvXvXvXvXvXvXvXvXvXvXvXvXvXvX",
"vXvXvXvXvXF _ -.V.5 q G K K ] q.3.L K 8.K 7 Z vXvXj y t f s.d./ @.G 4 vXvXvXvXvXvXvXvXvXvXvXvXvXvXvXvXvXvXvXvXvXvXvXvXvXvXvXvXvX",
"vXvXvXvXvXvX_ &.B . 6 9 Q n.P.D.^.^.G.O.# ; 2 ! v.b.c.d * i h I G b T { vXvXvXvXvXvXvXvXvXvXvXvXvXvXvXvXvXvXvXvXvXvXvXvXvXvXvXvX",
"vXvXvXvXvXvXvX~ # . .   1 } L.|.K.Q 5 + + - > 3 ' v.b.l.t * , p P U v.g.! vXvXvXvXvXvXvXvXvXvXvXvXvXvXvXvXvXvXvXvXvXvXvXvXvXvXvX",
"vXvXvXvXvXvXvXvXvXO O + . & 2 8 : X . O # ; O 1 V ' wXc.f < y y i U d.} V } vXvXvXvXvXvXvXvXvXvXvXvXvXvXvXvXvXvXvXvXvXvXvXvXvXvX",
"vXvXvXvXvXvXvXvXvXvXvXvXvXvXvXvXvXvXvX& O O + ; 3 M wXc.d P | D.Q m d ! P.B.vXvXvXvXvXvXvXvXvXvXvXvXvXvXvXvXvXvXvXvXvXvXvXvXvXvX",
"vXvXvXvXvXvXvXvXvXvXvXvXvXvXvXvXvXvXvXvX+ . X X 6 C wXf.p W  X+XR.H u m } }.}.vXvXvXvXvXvXvXvXvXvXvXvXvXvXvXvXvXvXvXvXvXvXvXvXvX",
"vXvXvXvXvXvXvXvXvXvXvXvXvXvXvXvXvXvXvXvXvX$ o o y x.c.U * D '.a.r.D d m M v.|.vXvXvXvXvXvXvXvXvXvXvXvXvXvXvXvXvXvXvXvXvXvXvXvXvX",
"vXvXvXvXvXvXvXvXvXvXvXvXvXvXvXvXvXvXvXvXvXvXh U f.l.s.i * b X.6.X.G d d m V P.%XvXvXvXvXvXvXvXvXvXvXvXvXvXvXvXvXvXvXvXvXvXvXvXvX",
"vXvXvXvXvXvXvXvXvXvXvXvXvXvXvXvXvXvXvXvXvXvXvXg g s.f & % 1 L r.o.M 4 u u d Q tXvXvXvXvXvXvXvXvXvXvXvXvXvXvXvXvXvXvXvXvXvXvXvXvX",
"vXvXvXvXvXvXvXvXvXvXvXvXvXvXvXvXvXvXvXvXvXvXvXvX* f y % o & M n.` 4 < < < < E wXeXvXvXvXvXvXvXvXvXvXvXvXvXvXvXvXvXvXvXvXvXvXvXvX",
"vXvXvXvXvXvXvXvXvXvXvXvXvXvXvXvXvXvXvXvXvXvXvXvX, * & X o & & : > > > > > > Q v.b.tXvXvXvXvXvXvXvXvXvXvXvXvXvXvXvXvXvXvXvXvXvXvX",
"vXvXvXvXvXvXvXvXvXvXvXvXvXvXvXvXvXvXvXvXvXvXvXvXvX%   X o % $ = = > > > > < | g.l.v.tXvXvXvXvXvXvXvXvXvXvXvXvXvXvXvXvXvXvXvXvXvX",
"vXvXvXvXvXvXvXvXvXvXvXvXvXvXvXvXvXvXvXvXvXvXvXvXvX% X X % $ $ = = > > > ; 3 ' d.d.l.eXvXvXvXvXvXvXvXvXvXvXvXvXvXvXvXvXvXvXvXvXvX",
"vXvXvXvXvXvXvXvXvXvXvXvXvXvXvXvXvXvXvXvXvXvXvXvXvX$ X X o % $ * > > > > > z h.h d.d.c.eXvXvXvXvXvXvXvXvXvXvXvXvXvXvXvXvXvXvXvXvX",
"vXvXvXvXvXvXvXvXvXvXvXvXvXvXvXvXvXvXvXvXvXvXvXvXvX$ . X o o % $ & > > > 1 R vXvXh s.l.eXvXvXvXvXvXvXvXvXvXvXvXvXvXvXvXvXvXvXvXvX",
"vXvXvXvXvXvXvXvXvXvXvXvXvXvXvXvXvXvXvXvXvXvXvXvXvX= . X   X % & , t y , > / vXvXk d.x.b.vXvXvXvXvXvXvXvXvXvXvXvXvXvXvXvXvXvXvXvX",
"vXvXvXvXvXvXvXvXvXvXvXvXvXvXvXvXvXvXvXvXvXvXvXvXvXvXf i i a f s.d.f.l.f.u vXvXvXs.f.b.wXvXvXvXvXvXvXvXvXvXvXvXvXvXvXvXvXvXvXvXvX",
"vXvXvXvXvXvXvXvXvXvXvXvXvXvXvXvXvXvXvXvXfX XW.dXvXvXk.j.j.j.k.z.z.z.x.b.vXvXvXvXy g f.eXvXvXvXvXvXvXvXvXvXvXvXvXvXvXvXvXvXvXvXvX",
"vXvXvXvXvXvXvXvXvXvXvXvXvXvXvXvXvXvXsX8XW.N v E.vXc.k.j.k.k.k.x.z.z.c.wXvXvXvX+ . & > M vXvXvXvXvXvXvXvXvXvXvXvXvXvXvXvXvXvXvXvX"
};
