/* XPM */
static char *result[] = {
/* columns rows colors chars-per-pixel */
"64 64 227 2 ",
"   c #1B1A1A",
".  c #1B1D27",
"X  c #1E212B",
"o  c #1F263A",
"O  c #22242D",
"+  c #2D2C2D",
"@  c #272626",
"#  c #312F2F",
"$  c #232631",
"%  c #262934",
"&  c #292B36",
"*  c #242B3B",
"=  c #2B2E39",
"-  c #202639",
";  c #2E303A",
":  c #343233",
">  c #32343B",
",  c #3C3B3C",
"<  c #383739",
"1  c #302F30",
"2  c #403E3E",
"3  c #504A3D",
"4  c #293348",
"5  c #3B3D45",
"6  c #2D3A58",
"7  c #323C53",
"8  c #323F5B",
"9  c #232C43",
"0  c #2D3F65",
"q  c #423E47",
"w  c #3C465D",
"e  c #384869",
"r  c #364B75",
"t  c #3C517B",
"y  c #2F4267",
"u  c #444343",
"i  c #4B4544",
"p  c #4D4B4B",
"a  c #4A4748",
"s  c #524D4C",
"d  c #504845",
"f  c #59524A",
"g  c #5B5857",
"h  c #484A51",
"j  c #645D5B",
"k  c #615B55",
"l  c #645B44",
"z  c #756747",
"x  c #66615D",
"c  c #69625E",
"v  c #766C4C",
"b  c #494863",
"n  c #4D566B",
"m  c #5D5B65",
"M  c #545375",
"N  c #596074",
"B  c #646264",
"V  c #6B6562",
"C  c #6E6964",
"Z  c #6E6B6B",
"A  c #66606F",
"S  c #716A65",
"D  c #736D6A",
"F  c #7B6E6B",
"G  c #7A6966",
"H  c #76716E",
"J  c #7A726D",
"K  c #6A6778",
"L  c #746D75",
"P  c #7B7572",
"I  c #7E7975",
"U  c #777676",
"Y  c #605773",
"T  c #945C5A",
"R  c #897D56",
"E  c #8A784B",
"W  c #83776A",
"Q  c #827B76",
"!  c #8B7B75",
"~  c #847D7A",
"^  c #867875",
"/  c #987A76",
"(  c #A4756E",
")  c #B8746C",
"_  c #AB7B75",
"`  c #B37B75",
"'  c #C87F77",
"]  c #978554",
"[  c #8E8259",
"{  c #86807D",
"}  c #8A827D",
"|  c #97837D",
" . c #878163",
".. c #B8827C",
"X. c #A5847E",
"o. c #CA8279",
"O. c #3A5487",
"+. c #3A558F",
"@. c #3F60A5",
"#. c #455C88",
"$. c #415D92",
"%. c #675789",
"&. c #57688A",
"*. c #4B669B",
"=. c #4A6496",
"-. c #576B96",
";. c #566C96",
":. c #777787",
">. c #6E7195",
",. c #4C6BA3",
"<. c #4C6EAA",
"1. c #4667A6",
"2. c #5272AB",
"3. c #5874AA",
"4. c #4E72B6",
"5. c #5275B4",
"6. c #5B7AB3",
"7. c #5277B9",
"8. c #547ABD",
"9. c #5B7DBD",
"0. c #4F6FAA",
"q. c #617CAF",
"w. c #567DC2",
"e. c #587FC3",
"r. c #947F81",
"t. c #7A84A3",
"y. c #6885BB",
"u. c #728AB7",
"i. c #7A819B",
"p. c #5B81C5",
"a. c #5C84CC",
"s. c #5E87D0",
"d. c #5F89D2",
"f. c #6286C9",
"g. c #6487C8",
"h. c #608AD4",
"j. c #628DD8",
"k. c #8D8582",
"l. c #8E8884",
"z. c #888687",
"x. c #908782",
"c. c #928A85",
"v. c #958D89",
"b. c #9B8988",
"n. c #96908D",
"m. c #9A928D",
"M. c #988E92",
"N. c #9C9592",
"B. c #9E9896",
"V. c #969493",
"C. c #8C8B91",
"Z. c #A38C8C",
"A. c #AC8D8C",
"S. c #AB8984",
"D. c #B78986",
"F. c #A9918E",
"G. c #AB9392",
"H. c #A29994",
"J. c #A39D9A",
"K. c #A89795",
"L. c #B79996",
"P. c #A48D92",
"I. c #A6A19D",
"U. c #ABA29D",
"Y. c #BDA09D",
"T. c #8E98AF",
"R. c #ACA5A2",
"E. c #A9A6A7",
"W. c #B3A5A3",
"Q. c #B2AAA5",
"!. c #B4ACAB",
"~. c #BCABAB",
"^. c #BBA7A4",
"/. c #BAB2AC",
"(. c #BBB6B4",
"). c #BBB7B8",
"_. c #AFACB9",
"`. c #9D9CB2",
"'. c #C58C88",
"]. c #C8918D",
"[. c #C39693",
"{. c #CA9592",
"}. c #CC9A96",
"|. c #C39D9C",
" X c #CB9D99",
".X c #C29A96",
"XX c #D19F97",
"oX c #CBA19D",
"OX c #C5A29C",
"+X c #C3A5A3",
"@X c #CAA5A2",
"#X c #C4AAA7",
"$X c #CAA9A6",
"%X c #C3ADAC",
"&X c #CAACAA",
"*X c #C3BAB3",
"=X c #C2BDBB",
"-X c #CCBBB7",
";X c #D9BAB3",
":X c #CFB0AB",
">X c #D1C2BE",
",X c #C8C0BA",
"<X c #C2BFC0",
"1X c #CAC5C3",
"2X c #CAC7C7",
"3X c #D4CBC4",
"4X c #D2CDCC",
"5X c #DBCBC7",
"6X c #D9D1CC",
"7X c #D6D3D2",
"8X c #DAD5D4",
"9X c #DEDBDA",
"0X c #DCD8D7",
"qX c #D1CFD0",
"wX c #E1DEDC",
"eX c #E3DAD4",
"rX c #E2CFCB",
"tX c #E5E1DF",
"yX c #E9E1D9",
"uX c #E5E2E1",
"iX c #E9E5E3",
"pX c #EDE9E7",
"aX c #F5F1EF",
"sX c #FEFCFA",
"dX c #FAF6F4",
"fX c #F3EFED",
"gX c None",
/* pixels */
"gXgXgXgXgXgXgXgXgXgXgXgXgXgXgXgXgXgXgXgXgXgXgXgXgXgXgX~ } l.} } } { } | gXgXgXgXgXgXgXgXgXgXgXgXgXgXgXgXgXgXgXgXgXgXgXgXgXgXgXgX",
"gXgXgXgXgXgXgXgXgXgXgXgXgXgXgXgXgXgXgXgXgXgXgXJ Q Q Q ! { } v.l.c.} { { { } gXgXgXgXgXgXgXgXgXgXgXgXgXgXgXgXgXgXgXgXgXgXgXgXgXgX",
"gXgXgXgXgXgXgXgXgXgXgXgXgXgXgXgXgXgXgXgXgXI Q J I Q Q Q { } c.v.n.v.v.{ } l.} v.gXgXgXgXgXgXgXgXgXgXgXgXgXgXgXgXgXgXgXgXgXgXgXgX",
"gXgXgXgXgXgXgXgXgXgXgXgXgXgXgXgXgXgXgXJ Q ! { } { ! } ~ Q { | m.m.n.m.m.} } } } ~ gXgXgXgXgXgXgXgXgXgXgXgXgXgXgXgXgXgXgXgXgXgXgX",
"gXgXgXgXgXgXgXgXgXgXgXgXgXgXgXgXgXQ P { Q W } } } } } }  .{ c.m.m.v.m.N.V.} } c s s gXgXgXgXgXgXgXgXgXgXgXgXgXgXgXgXgXgXgXgXgXgX",
"gXgXgXgXgXgXgXgXgXgXgXgXgXgXgXgXQ { Q ! ! } } } } } } } } k.c.v.m.m.v.N.m.n.H 3 i I J.gXgXgXgXgXgXgXgXgXgXgXgXgXgXgXgXgXgXgXgXgX",
"gXgXgXgXgXgXgXgXgXgXgXgXgXgXgXQ Q Q { { { { k.c.| | } } k.c.n.v.m.v.m.c.n.n.c.I k.3X8X4XgXgXgXgXgXgXgXgXgXgXgXgXgXgXgXgXgXgXgXgX",
"gXgXgXgXgXgXgXgXgXgXgXgXgXgXgXP J Q Q { } | | } } { { I H } b.n.v.v.v.} v.n.n.I.>X3Xm.n.gXgXgXgXgXgXgXgXgXgXgXgXgXgXgXgXgXgXgXgX",
"gXgXgXgXgXgXgXgXgXgXgXgXgXgXQ P Q { } ! P S f s i 3 d d x l.B.N.v.v.v.c.c.v.m.m.,Xn.D Z H gXgXgXgXgXgXgXgXgXgXgXgXgXgXgXgXgXgXgX",
"gXgXgXgXgXgXgXgXgXgXgXgXgXgXQ J Q { D f i f c H P P P c.U.%X!.H.| v.v.c.v.c.c.v./.c.C D D D x gXgXgXgXgXgXgXgXgXgXgXgXgXgXgXgXgX",
"gXgXgXgXgXgXgXgXgXgXgXgXgXQ I Q ! x p x m.*X1X*XQ.U.Q./.,X5X5X*XN.} | c.v.c.v.v.J.I.H H G s # @ gXgXgXgXgXgXgXgXgXgXgXgXgXgXgXgX",
"gXgXgXgXgXgXgXgXgXgXgXgXgX{ Q ! c k N.3X6XU.} I H P P P I } ~.5X/.c.l.l.v.v.c.v.v.R.{ C q @ 2 A gXgXgXgXgXgXgXgXgXgXgXgXgXgXgXgX",
"gXgXgXgXgXgXgXgXgXgXgXgX{ Q Q S f U.yX,Xz.I P I I I P P ^ L F !.6XU.} } c.c.v.k.k.H.k.H A > 2 :.gXgXgXgXgXgXgXgXgXgXgXgXgXgXgXgX",
"gXgXgXgXgXgXgXgXgXgXgXgXQ Q Q k v.yX,XQ P I I Q I H B B s f B ^ >X,Xn.| } } l.} { c.H.1X2XY q %.L gXgXgXgXgXgXgXgXgXgXgXgXgXgXgX",
"gXgXgXgXgXgXgXgXgXgXgXgXI ! F J 3X6Xl.P P H D g p i , , 2 @ : q I.,XH.} c.l.l.c.k.k.H.3XpX_.%.>.m C gXgXgXgXgXgXgXgXgXgXgXgXgXgX",
"gXgXgXgXgXgXgXgXgXgXgXgXQ { D Q.0XI.H H B s u p C B.!.K b     @ J ,XU.| c.l.} c.c.c.v.U.2X4XV.L L ~ { gXgXgXgXgXgXgXgXgXgXgXgXgX",
"gXgXgXgXgXgXgXgXgXgXgXI ~ } | 3X/.Z p , , C I.qXpXaXdX).%.7     p H.U.c.c.k.c.l.k.k.{ c.c.c.k.r.{ Q P gXgXgXgXgXgXgXgXgXgXgXgXgX",
"gXgXgXgXgXgXgXgXgXgXgXP } c.U.*XD # 2 Z Q.tXfXdXdXdXsXaX`.%.M b M P H.c.} k.c.k.{ Q I I ~ K.H.c.k.Q P I gXgXgXgXgXgXgXgXgXgXgXgX",
"gXgXgXgXgXgXgXgXgXgXJ J } c.U.Q.I a E.tXfXaXdXdXsXsXsXsXaX_.>.%.Y F n.| } } c.} ! ~ ! / ( L.5X).B.} ~ I gXgXgXgXgXgXgXgXgXgXgXgX",
"gXgXgXgXgXgXgXgXgXgXD I ! } m.I.H.H I /.wXaXdXdXdXsXsXdXwX5XK.^ P c.m.F.X.....( ( o.o.' ` %X8X7X(.N.z.~ gXgXgXgXgXgXgXgXgXgXgXgX",
"gXgXgXgXgXgXgXgXgXgXC J { { { Q } v.{ J { B.).,X,X*XQ.H.n.} } } x.m.Q.-X$X].o.T T ) ' ) r.;XtXwX1XI.n.z.gXgXgXgXgXgXgXgXgXgXgXgX",
"gXgXgXgXgXgXgXgXgXD C D W J J J H J Q } { Q { } { { Q { } { { { c.U.2X8X8XrX5X:X+XL.` ) +XeXiXwXqX!.B.n.gXgXgXgXgXgXgXgXgXgXgXgX",
"gXgXgXgXgXgXgXgXgXH S S J D D F D S S S D J H H J D H H  .{ { l.I.=X0XwXtXyXiXwXtX6X&XD.-X7XtXwX0X(.B.gXgXgXgXgXgXgXgXgXgXgXgXgX",
"gXgXgXgXgXgXgXgXgXc S S S D S S S S S V C S S D S J U U I { } H./.5XwXtXpXpXpXiXiX8X*XD.Y.qXuXtX9X(.I.gXgXgXgXgXgXgXgXgXgXgXgXgX",
"gXgXgXgXgXgXgXgXP C D V S S V S c S C x V V S S D P  .{ } n.V.I.).8XtXtXiXpXpXtXiXrX[.) '.&XrXtX9X(.gXgXgXgXgXgXgXgXgXgXgXgXgXgX",
"gXgXgXgXgXgXgXgXJ D P V c c c c x x c v C C D D J P U { } V.H./.,X0X9XtXtXiXiXtXrXXXXX:X;X:X1X9X8XgXgXgXgXgXgXgXgXgXgXgXgXgXgXgX",
"gXgXgXgXgXgXgXgXP P P V k x c x x V Z C S V S P Q U ~ } V.H.Q.(.4X0X9X9XiXyXeX;X;X5X6X7X9XwXuXiX0XgXgXgXgXgXgXgXgXgXgXgXgXgXgXgX",
"gXgXgXgXgXgXgXgXS I l.C j x x c S C D H J D J U H U } z.V.I.!.<X7XtXwXtXtX5X;XrXeX0XwXuXwXiXpX).gXgXgXgXgXgXgXgXgXgXgXgXgXgXgXgX",
"gXgXgXgXgXgXgXH D l.m.J j x j c V S S D H D U Q ~ } v.m.I.E.(.,X9X9X9XtXtXeXeXwXuXuXuXuXuXpX2XI H gXgXgXgXgXgXgXgXgXgXgXgXgXgXgX",
"gXgXgXgXgXgXgXI P M.J.b.j k j V x S H J I  .U { } v.V.B.I.Q.=XqX9X9X9XtXiXwXiXiXuXuXuXuXuX1Xv.Q H gXgXgXgXgXgXgXgXgXgXgXgXgXgXgX",
"gXgXgXgXgXgXgXI ~ N.W.K.G j j V S H U U { I I { z.z.n.B.E./.=X7X9XwX9XwXtXuXuXtXwXwXwX8X%Xb.^ ~ V gXgXgXgXgXgXgXgXgXgXgXgXgXgXgX",
"gXgXgXgXgXgXgXP k.I.I.F.( G V j C V V H I U I { { { v.V.I.!.=XqX0X9X0X9XwX9X9X9X9XuXqXY.S.Z.^ P V V gXgXgXgXgXgXgXgXgXgXgXgXgXgX",
"gXgXgXgXgXgXgXP M.W.@Xr.' r.( W j j c D H H P Q z.I z.B.E.!.).2X7X7X7X7X7X0X0XwXwXqXL.A.A.P.r.F D c gXgXgXgXgXgXgXgXgXgXgXgXgXgX",
"gXgXgXgXgXgXgXI M.W.|.'.'.'...'._ ! F C V D L P H P z.v.B.E.).1X2XqXqXqX0X9XuXwX4X:.:.A.A.G.r.G B g gXgXgXgXgXgXgXgXgXgXgXgXgXgX",
"gXgXgXgXgXgX{ I M.W.G.r.'.'.'.].].{.L.X.F J H S D L I ~ C.B.!.=X2X2XqX8X0X9XwXqXE.8 M P.G.G.P.^ s u u gXgXgXgXgXgXgXgXgXgXgXgXgX",
"gXgXgXgXgXgXP I J.W.A.D.'.].].].{.XXoXS.! ! J c gXgXgX&.-.:.C.R.).2XqX9X0X0X9X2XC.8 3.P.G.G.G.! i : < gXgXgXgXgXgXgXgXgXgXgXgXgX",
"gXgXgXgXgXgXI k.R.L.A.[.[.{.{.{.}.}.oXX.^ ! J V gXgXgX-.,.0.2.3.t.(.4X7X7X7X7X2XC.*.r.b.Z.F.G.c.s @ + 2 gXgXgXgXgXgXgXgXgXgXgXgX",
"gXgXgXgXgXgXI v.R.A.L.[.[.{.{.}.XXXXoX| W ^ F gXgXgXgXgX*.<.5.7.p.`.2X4XqX7X4X<X:.5.&.L x.m.F.Z.j + + 2 gXgXgXgXgXgXgXgXgXgXgXgX",
"gXgXgXgXgXgXI n.K.A.[.[.{.}.}. XoXoXOX| J W C gXgXgXgXgX#.,.0.7.8.u.).7X7X8XqX).t.6.e * a ^ v.m.L # + < gXgXgXgXgXgXgXgXgXgXgXgX",
"gXgXgXgXgXgXI v.P.A.[.[.|. X XoXoX@X|.! G J c gXgX@ O 6 t =.2.7.p.y._.2XqX4X4X<Xu.q.*.9 O 5 i.n.~ q + : gXgXgXgXgXgXgXgXgXgXgXgX",
"gXgXgXgXgXk.k.n.P.A.|.|.|.@X@X@X$X$XL.! F J x w 4 O . X 9 O.1.2.7.p.T.).1X<X).`.p.5.$.& O = &.i.z.s + : a gXgXgXgXgXgXgXgXgXgXgX",
"gXgXgXgXgX~ I n.b.L.|.|.oX@X@X@X$X$XL.^ W F m n O.r * X X % 8 $.2.p.y.u.u.u.p.p.8.,.7 % $ @ t p.>.g + : u gXgXgXgXgXgXgXgXgXgXgX",
"gXgXgXgXgXD I n.b.L.|.+X|.@X@X$X$X&XG.^ Q K =.1.<.<.r O $ $ O % 7 t *.5.8.w.w.p.*.w % % & & w p.y.A + + u gXgXgXgXgXgXgXgXgXgXgX",
"gXgXgXgXgXD ~ k.b.Y.+X+X@X$X$X&X&X#XF.W :.,.<.<.7.8.*.9 O $ O $ $ % * 7 r #.=.t 4 % % % $ X w 2.p.-.+ + , gXgXgXgXgXgXgXgXgXgXgX",
"gXgXgXgXgXP Q Q b.W.+X+X$X$X&X&X&X!.v.D ;.5.5.7.w.e.e.t O $ $ % % % % % % % = % $ % $ 3 3 3 k 0.9.6.< + , gXgXgXgXgXgXgXgXgXgXgX",
"gXgXgXgXgXZ Z j r.Y.+X+X$X&X&X&X&XY.} K 6.8.7.p.e.e.s.0.= $ & & % % % = % = % % & % $ E ] ] [ ;.9.9.w @ 5 gXgXgXgXgXgXgXgXgXgXgX",
"gXgXgXgXgXs s a ^ W.^.#X%X$X&X&X%XU.P -.p.8.p.p.w.e.a.e.8 & & & = % = % = = & = & % % z ]  .[ &.8.p.#.# u gXgXgXgXgXgXgXgXgXgXgX",
"gXgXgXgXgXi < , ^ W.^.#X#X%X&X%X%XZ.Z 5.p.p.p.p.w.7.w.e.r % & & % = = % = % = % & & % z ]  .R H 7.e.;.< i gXgXgXgXgXgXgXgXgXgXgX",
"gXgXgXgXgXu : < D U.^.~.#X%X%X%X~.c.K 9.p.p.p.a.p.8.4.4.O.% * & = & = & = & & = & & & z ] [ [  .6.7.6.w p gXgXgXgXgXgXgXgXgXgXgX",
"gXgXgXgXgXu : < D W.~.^.%X%X%X%XW.Q N p.a.a.s.a.p.w.1.@.O.* & = = = = = = & = & & & % z ] [ ]  .3.7.6.N gXgXgXgXgXgXgXgXgXgXgXgX",
"gXgXgXgXgXu : < C I.~.~.).%X%X%XI.x n p.a.a.d.d.s.w.1.+.0 - * = ; = = = = & & = = & & : l E z h ,.8.8.q.gXgXgXgXgXgXgXgXgXgXgXgX",
"gXgXgXgXgXu : + j K.~.~.%X%X%X~.} 3 n p.p.s.d.d.s.w.@.O.4 $ = = ; = = = = = = = = & & % % % + 4 ,.8.8.y.gXgXgXgXgXgXgXgXgXgXgXgX",
"gXgXgXgXgXgX> + p C.!.~.~.%X~.K.k : b p.a.d.h.d.s.e.4.y o - % = = = = = = & & = & & & & & & % w 2.p.w.8.gXgXgXgXgXgXgXgXgXgXgXgX",
"gXgXgXgXgXgX3 & 5 r.W.!.).~.W.L : # b a.s.d.h.h.s.s.4.0 . $ % * = & = & = & = & & & & % % & % y 7.p.p.8.gXgXgXgXgXgXgXgXgXgXgXgX",
"gXgXgXgXgXgXa 1 & j V.!.~.Q.r.5 + 1 n f.s.d.h.h.d.a.4.0 . o $ % & & % % & & & & & % % % % % & t 7.p.p.p.y.gXgXgXgXgXgXgXgXgXgXgX",
"gXgXgXgXgXgXp : @ q Z v.B.P q O 1 2 gXf.s.d.h.h.d.a.w.0 . X X $ $ % % % % % % % % % % % $ $ * $.7.p.a.a.p.gXgXgXgXgXgXgXgXgXgXgX",
"gXgXgXgXgXgXgX, # # < u s : + + u gXgXf.s.d.h.h.s.a.p.e X X X $ $ X X O O X $ $ X O O X X X * $.4.w.a.a.f.gXgXgXgXgXgXgXgXgXgXgX",
"gXgXgXgXgXgXgXp < # + + + + # 2 gXgXgXf.s.d.d.d.s.a.7.e X $ % $ % % X X X @ w , @ w + X $ X ; r 1.w.e.a.a.g.gXgXgXgXgXgXgXgXgXgX",
"gXgXgXgXgXgXgXgXp , : + + : w gXgXgXgXf.s.d.d.j.d.a.7.y X $ $ % % % % % $ X g I & g B % + % % % y 1.7.a.a.f.gXgXgXgXgXgXgXgXgXgX",
"gXgXgXgXgXgXgXgXgXgXp u u gXgXgXgXgXgXf.s.d.h.h.s.a.4.6 X $ $ % % % $ % & X B n.; j z.; % & % % 7 5.7.8.a.f.gXgXgXgXgXgXgXgXgXgX",
"gXgXgXgXgXgXgXgXgXgXgXgXgXgXgXgXgXgXgXf.d.d.d.j.d.a.<.4 X X X % & $ % X & $ B V.> m C.> % & & % * 0.a.a.a.a.gXgXgXgXgXgXgXgXgXgX",
"gXgXgXgXgXgXgXgXgXgXgXgXgXgXgXgXgXgXgXf.d.d.d.d.s.p.*.& X X X % % & + @ % % Z V.= B V.> % % & % % *.h.h.s.h.g.gXgXgXgXgXgXgXgXgX",
"gXgXgXgXgXgXgXgXgXgXgXgXgXgXgXgXgXgXgXa.d.d.d.d.s.p.+.o X X X X $ % % w > ; { i.= H z.: = & & & % =.j.h.h.g.g.gXgXgXgXgXgXgXgXgX",
"gXgXgXgXgXgXgXgXgXgXgXgXgXgXgXgXgXgXgXa.d.d.d.d.a.4.$.O.* X % % % $ % Z U u z.k = k.L & = & = = = ,.j.h.j.h.gXgXgXgXgXgXgXgXgXgX"
};
