/* XPM */
static char *result[] = {
/* columns rows colors chars-per-pixel */
"64 64 255 2 ",
"   c #040604",
".  c #110A0C",
"X  c #280B07",
"o  c #3D0503",
"O  c #360906",
"+  c #3A1607",
"@  c #2D1913",
"#  c #3A2703",
"$  c #262F16",
"%  c #0B0F26",
"&  c #372D22",
"*  c #212223",
"=  c #430604",
"-  c #490907",
";  c #550A05",
":  c #58120A",
">  c #491A10",
",  c #5A1915",
"<  c #441807",
"1  c #630D05",
"2  c #770E03",
"3  c #67180B",
"4  c #7D1203",
"5  c #771806",
"6  c #681C16",
"7  c #761D15",
"8  c #4A2706",
"9  c #4B3C09",
"0  c #483606",
"q  c #563909",
"w  c #493D11",
"e  c #522D16",
"r  c #682517",
"t  c #772415",
"y  c #673613",
"u  c #753418",
"i  c #6E300C",
"p  c #492D2D",
"a  c #672926",
"s  c #782926",
"d  c #70372F",
"f  c #3D4320",
"g  c #3D401F",
"h  c #54430A",
"j  c #5A450B",
"k  c #5C4A0D",
"l  c #554107",
"z  c #574814",
"x  c #5C5115",
"c  c #4F4513",
"v  c #634D0E",
"b  c #624C12",
"n  c #6B4716",
"m  c #764314",
"M  c #645313",
"N  c #695816",
"B  c #755C1A",
"V  c #78651B",
"C  c #6C631B",
"Z  c #544F27",
"A  c #6F4E2E",
"S  c #756825",
"D  c #2C2943",
"F  c #513149",
"G  c #633E4E",
"H  c #7A6A46",
"J  c #6B4C57",
"K  c #841403",
"L  c #8B1404",
"P  c #8B1B04",
"I  c #861C08",
"U  c #931B04",
"Y  c #9B1D05",
"T  c #951B08",
"R  c #911F10",
"E  c #A21E07",
"W  c #8A230A",
"Q  c #952305",
"!  c #9B2405",
"~  c #99270A",
"^  c #862713",
"/  c #952A13",
"(  c #8A381B",
")  c #983914",
"_  c #93330E",
"`  c #A4240A",
"'  c #AA2409",
"]  c #A22B0B",
"[  c #A82508",
"{  c #B52A0C",
"}  c #BD2E0D",
"|  c #B32609",
" . c #A7320E",
".. c #A62C13",
"X. c #A63217",
"o. c #B83616",
"O. c #BC2F10",
"+. c #882C24",
"@. c #8A3527",
"#. c #9B3627",
"$. c #8E3632",
"%. c #AB3B27",
"&. c #AC3B2A",
"*. c #C6330E",
"=. c #C43312",
"-. c #CA3512",
";. c #CD3A14",
":. c #C73A19",
">. c #D33A16",
",. c #D33C1A",
"<. c #D93D1B",
"1. c #C12E0C",
"2. c #C53D23",
"3. c #864916",
"4. c #935019",
"5. c #AD441C",
"6. c #85691F",
"7. c #8A462A",
"8. c #985826",
"9. c #9A433B",
"0. c #8E4F31",
"q. c #A54628",
"w. c #A35A27",
"e. c #B45527",
"r. c #AA4733",
"t. c #B84935",
"y. c #AA5736",
"u. c #B95937",
"i. c #B8472B",
"p. c #866D22",
"a. c #9D6536",
"s. c #91742B",
"d. c #A66525",
"f. c #B56A2A",
"g. c #AB6936",
"h. c #B76A37",
"j. c #BA7636",
"k. c #AE7130",
"l. c #C8451C",
"z. c #D6461C",
"x. c #D4511F",
"c. c #E6471B",
"v. c #C7432A",
"b. c #DC4523",
"n. c #DC4A26",
"m. c #CA5627",
"M. c #D85A26",
"N. c #C95437",
"B. c #D85437",
"V. c #CE4D35",
"C. c #E34A23",
"Z. c #E94D25",
"A. c #E8562B",
"S. c #F5582A",
"D. c #E55A37",
"F. c #F25C33",
"G. c #C86A2A",
"H. c #D5662C",
"J. c #D76A34",
"K. c #CD7B35",
"L. c #C77736",
"P. c #D57D37",
"I. c #C96D31",
"U. c #E86636",
"Y. c #F76638",
"T. c #EB6F3A",
"R. c #935147",
"E. c #AE5A48",
"W. c #966D4E",
"Q. c #B9774A",
"!. c #B46F4F",
"~. c #8A5766",
"^. c #B07B6D",
"/. c #906A78",
"(. c #C45742",
"). c #CA6A45",
"_. c #C77C45",
"`. c #D87848",
"'. c #CB7859",
"]. c #CA7153",
"[. c #EB6B46",
"{. c #F66B43",
"}. c #EA7645",
"|. c #FA7444",
" X c #FA7C4C",
".X c #F77649",
"XX c #F07A54",
"oX c #C77962",
"OX c #9B8430",
"+X c #AE9339",
"@X c #D5833B",
"#X c #DA843B",
"$X c #D5833A",
"%X c #CD803B",
"&X c #C2A53F",
"*X c #B2884B",
"=X c #B9A54A",
"-X c #A78B6E",
";X c #DA8A45",
":X c #C68459",
">X c #D88759",
",X c #D9955C",
"<X c #C88A4A",
"1X c #E28A44",
"2X c #FA814D",
"3X c #EA954B",
"4X c #FA8352",
"5X c #F98959",
"6X c #E89855",
"7X c #F8975B",
"8X c #ED8C55",
"9X c #D5B74B",
"0X c #C9B65B",
"qX c #CCB24D",
"wX c #F4A057",
"eX c #C88B64",
"rX c #D6926C",
"tX c #F88C64",
"yX c #FB9363",
"uX c #FA956B",
"iX c #F99A6A",
"pX c #FB9B74",
"aX c #FA9A79",
"sX c #E7926B",
"dX c #D4B66C",
"fX c #ECA467",
"gX c #E9A779",
"hX c #F9A678",
"jX c #FCB67B",
"kX c #F1B06C",
"lX c #DBC258",
"zX c #E2C65A",
"xX c #D8C566",
"cX c #D9CB78",
"vX c #C9C26F",
"bX c #E4CA66",
"nX c #EAD16C",
"mX c #E6D378",
"MX c #E0CB70",
"NX c #D29983",
"BX c #FA9F84",
"VX c #D3AA92",
"CX c #F9AB84",
"ZX c #FBB787",
"AX c #F5BB94",
"SX c #EBB08A",
"DX c #ECBBA3",
"FX c #E4D489",
"GX c #F8C299",
"HX c #E7D996",
"JX c #F7C289",
"KX c #F4C6A6",
"LX c #EECAAF",
"PX c #D3C980",
"IX c None",
/* pixels */
"IXIXIXIXIXIXIXIXIXIXIXIXIXIXIXIXIXIXIXIXIXIXIXIXIXIXIXIXIXIXIXIXIXIXIXIXIXIXIXIXIXIXIXIXIX$.d IXIXIXIXIXIXIXIXIXIXIXIXIXIXIXIXIX",
"IXIXIXIXIXIXIXIXIXIXIXd s d IXIXIXIXIXIXIXIXIXIXIXIXIXIXIXIXIXIXIXIXIXIXIXIXIXIXIXIXIXIX9.a p IXIXIXIXIXIXIXIXIXIXIXIXIXIXIXIXIX",
"IXIXIXIXIXIXIXIXIXIX0.6 6 - , IXIXIXIXIXIXIXIXIXIXIXIXIXIXIXIXIXIXIXIXIXIXIXIXIXIXIXIX9.s - @ IXIXIXIXIXIXIXIXIXIXIXIXIXIXIXIXIX",
"IXIXIXIXIXIXIXIXIXIXd : 6 ; > , d IXIXIXIXIXIXIXIXIXIXIXIXIXIXIXIXIXIXIXIXIXIXIXIXIXIX$.6 O O IXIXIXIXIXIXIXIXIXIXIXIXIXIXIXIXIX",
"IXIXIXIXIXIXIXIXIXIXa - #.@.; = - a IXIXIXIXIXIXIXIXIXIXIXIXIXIXIXIXIXIXIXIXIXIXIXIXR.+., X O IXIXIXIXIXIXIXIXIXIXIXIXIXIXIXIXIX",
"IXIXIXIXIXIXIXIXIXIXd 3 y.].7 o O - a IXIXIXIXIXIXIXIXIXIXIXIXIXIXIXIXIXIXIXIXIXIXIX#.+.- X + a IXIXIXIXIXIXIXIXIXIXIXIXIXIXIXIX",
"IXIXIXIXIXIXIXIXIXIXIX3 t.>Xu.: = = - a IXIXIXIXIXIXIXIXIXIXIXIXIXIXIXIXIXIXIXIXIXR.+.s - O - > IXIXIXIXIXIXIXIXIXIXIXIXIXIXIXIX",
"IXIXIXIXIXIXIXIXIXIXR.: q.h.,X9.- - = o a IXIXIXIXIXIXIXIXIXIXIXIXIXIXIXIXIXIXIXIX$.+.6 O O r , IXIXIXIXIXIXIXIXIXIXIXIXIXIXIXIX",
"IXIXIXIXIXIXIXIXIXIXIX: ( y.<X>X@.; - o = 6 IXIXIXIXIXIXIXIXIXIXIXIXIXIXIXIXIXIX9.$.+.6 - O r e IXIXIXIXIXIXIXIXIXIXIXIXIXIXIXIX",
"IXIXIXIXIXIXIXIXIXIXIX7 ^ r.d.:X`.7 ; = O o , IXIXIXIXIXIXIXIXIXIXIXIXIXIXIXIXIX&.#.7 ; = = i u IXIXIXIXIXIXIXIXIXIXIXIXIXIXIXIX",
"IXIXIXIXIXIXIXIXIXIXIX#.( y.Q.SXsXq.1 - = o = 3 9.IXIXIXIXIXIXIXIXIXIXIXIXIXIX(.&.#.6 - o o u @.IXIXIXIXIXIXIXIXIXIXIXIXIXIXIXIX",
"IXIXIXIXIXIXIXIXIXIXIXE.q.E.*XSXAXXXX.1 ; - = = 3 9.IXIXIXIXIXIXIXIXIXIXIXIXIX(.V.%.^ ; o o u ( IXIXIXIXIXIXIXIXIXIXIXIXIXIXIXIX",
"IXIXIXIXIXIXIXIXIXIXIXIXu.Q.eXgXZXhXB.R 1 1 ; : 5 / t.IXIXIXIXIXIXIXIXIXIXIX[.D.B.v.X.^ 1 ; 3.4.IXIXIXIXIXIXIXIXIXIXIXIXIXIXIXIX",
"IXIXIXIXIXIXIXIXIXIXIXIXu.>XrX:XrXhX8X2.R I R W ~ `  .N.IXIXIXIXIXIXIXIXIXtX{.D.C.:.o...W 5 q.( E.IXIXIXIXIXIXIXIXIXIXIXIXIXIXIX",
"IXIXIXIXIXIXIXIXIXIXIXIXt.).>XQ.eXgXhXXX:.....{ O.O.} o.B.IXIXIXIXIXCXaXtXXX{.{.[.B.o.X.W ~ e.( R.IXIXIXIXIXIXIXIXIXIXIXIXIXIXIX",
"IXIXIXIXIXIXIXIXIXIXIXIXE.5.:XQ.gXAXZXuXU.<.=.o.:.-.=.O.=.[.CXhXBXpXtXaXBXBXBXBXuXtXsXXXu.5.f.y.!.IXIXIXIXIXIXIXIXIXIXIXIXIXIXIX",
"IXIXIXIXIXIXIXIXIXIXIXIXE.%.'.rXSXLXKXCX5XF.c.z.,.z.<.z.D.tXpXpXpXaXaXaX5X X{.Y.Y.{. XXX[.[.J._.eXIXIXIXIXIXIXIXIXIXIXIXIXIXIXIX",
"IXIXIXIXIXIXIXIXIXIXIXIXIX%.rXGXKXLXKXZXpX2XA.C.c.Z.Y.XXaXhXhXpXuX4XXXD.Z.<.<.<.>.:.=.o.t.t.V.m.].IXIXIXIXIXIXIXIXIXIXIXIXIXIXIX",
"IXIXIXIXIXIXIXIXIXIXIXIXIXE.'.GXKXLXGXZXZXiXY.Z.Y.|.yXpXpXpX5X XD.B.2.X.I Y E E E T T 1 ; 3 t t ^ E.IXIXIXIXIXIXIXIXIXIXIXIXIXIX",
"IXIXIXIXIXIXIXIXIXIXIXIXIXR.N.SXSXJXZXjXhX4XS.Y.5XyXpXuX X[.B.r.+.s , - ; 2 L U L K K 2 1 - - ; = r R.IXIXIXIXIXIXIXIXIXIXIXIXIX",
"IXIXIXIXIXIXIXIXIXIXIXIXIXIXi.sXfXAXjXjXwXT.T.5XyXyX5X.X(.$.6 , ; ; ; ; 4 U U L K K K K Q 5 4 4 5 ; s IXIXIXIXIXIXIXIXIXIXIXIXIX",
"IXIXIXIXIXIXIXIXIXIXIXIXIXIXr.).>XjXJXjXiX2X2X7XXX X{.r.+.6 2 L L T U E | | Y L K 4 K L ! ] ! ! ! P 5 0.IXIXIXIXIXIXIXIXIXIXIXIX",
"IXIXIXIXIXIXIXIXIXIXIXIXIXIXE.E.'.SXJXZX7XT.5X2X.X{.2.7 L E { =.1.1.1.1.1.| E L 4 4 K I ! ] ] ] ! ! Q #.IXIXIXIXIXIXIXIXIXIXIXIX",
"IXIXIXIXIXIXIXIXIXIXIXIXIXIXoX).rXGXGXZX5X2XY.Y.{.B...E } 1.-.;.>.-.*.*.-.1.E L K 4 4 P ] ] ] ~ ] ! Q ~ E.IXIXIXIXIXIXIXIXIXIXIX",
"IXIXIXIXIXIXIXIXIXIXIXIXIXIXNXsXSXKXAXhX2XY.F.Y.F.,.{ -.-.>.,.<.z.;.=.=.-.*.| T K 2 K L ! ] ] X. .~ ~ ! i.IXIXIXIXIXIXIXIXIXIXIX",
"IXIXIXIXIXIXIXIXIXIXIXIXIXIXVXsXAXLXZXtX|.F.Y.Y.S.>.;.,.>.,.<.n.b.l.:.o.-.-.{ Y L 4 K K ] ~ ] / / ] ! Q ..].IXIXIXIXIXIXIXIXIXIX",
"IXIXIXIXIXIXIXIXIXIXIXIXIXIXIXeXSXKXuX|.Y.Y.Y.Y.Z.c.z.>.,.<.Z.V.v.o.&.{ { *.} E L K 4 P Q ~ / ^ ^ W ~ Q ! t.IXIXIXIXIXIXIXIXIXIX",
"IXIXIXIXIXIXIXIXIXIXIXIXIXIXIXVXSXAX5X{.|.2X2XY.Z.c.<.<.C.D.B.V.v.%.X...E } =.E L L K L Q Q ^ t t t W ~ ` ..].IXIXIXIXIXIXIXIXIX",
"IXIXIXIXIXIXIXIXIXIXIXIXIXIXIXIXVXhX4X|.|. XY.S.Z.c.b.C.B.B.V.t.&.#./ / T | =.E U L K K Q W t t t i 5 t ~ ' i.rXIXIXIXIXIXIXIXIX",
"IXIXIXIXIXIXIXIXIXIXIXIXIXIXIXIXgX5X4X|. X XY.S.S.S.Z.n.B.V.t.r.#.@.^ ^ I Y } ' L L K K K 5 3 3 3 3 3 3 Q [ } N.IXIXIXIXIXIXIXIX",
"IXIXIXIXIXIXIXIXIXIXIXIXIXIXIXIXfX4X X X4X|.Y.Y.S.S.c.n.V.t.&.#.+.t t 6 1 K { | T L K K 4 ; O O X @ + + : ! | 5.'.IXIXIXIXIXIXIX",
"IXIXIXIXIXIXIXIXIXIXIXIXIXIXIXIXiX2X4XtXyX4X XY.S.c.<.%.+.s a , > O X X + 1 { | Y P P P 5 8 *     $ s.A < Y [ O.N.IXIXIXIXIXIXIX",
"IXIXIXIXIXIXIXIXIXIXIXIXIXIXIXGX5X|. X5XtX X|.Y.S.S.,.r A /.-X-XJ .     $ : { { E R L L I d $     f -XW.; Y ! ~  .h.IXIXIXIXIXIX",
"IXIXIXIXIXIXIXIXIXIXIXIXIXIXIXKXyX4X4X X X X X{.Y.S.A.%.^.DXLXLX-X$     f t O.O.' E T T P t A f Z W.W.n 5 Y Y Q ~ o.IXIXIXIXIXIX",
"IXIXIXIXIXIXIXIXIXIXIXIXIXIXIXLXyX X X5X X{.Y.F.F.S.Z.C.t.^.NXVXVXH f Z A ~ -.*.{ ' ' ' ! P ^ @.0.7.( W Q Q Q U ~ q.IXIXIXIXIXIX",
"IXIXIXIXIXIXIXIXIXIXIXIXIXIXIXIXhXY. X5X|.{.U.F.Z.Z.Z.C.C.v.N.!.*XW.W.7.X.:.,.-.=.=.O.O.o.` Q P U ! ! ~ Q P Q ~  .e.IXIXIXIXIXIX",
"IXIXIXIXIXIXIXIXIXIXIXIXIXIXIXIXAX|.4X XY.U.A.D.A.C.n.n.c.z.z.z.,.:.=.:.,.n.b.<.<.<.<.2.=...` ` ! U P Q _ _ ) ) 5.Q.IXIXIXIXIXIX",
"IXIXIXIXIXIXIXIXIXIXIXIXIXIXIXIXIX7X4XY.U.U.A.M.M.m.M.m.x.5.=.;.:.:.:.<.C.A.F.F.D.Z.b.<.2.{ ` ` ] ~ ) ) 4.4.4.5.g.eXIXIXIXIXIXIX",
"IXIXIXIXIXIXIXIXIXIXIXIXIXIXIXIXIXCX2XT.U.U.M.x.x.H.I.G.G.f.f.J.}.XXXX.X.X{..X X.X{.D.D.2.&..... . .e.8.8.w.q.y.eXIXIXIXIXIXIXIX",
"IXIXIXIXIXIXIXIXIXIXIXIXIXIXIXIXIXGXyX|.U.J.M.H.M.H.K.L.P.#X1X3XjXCXCXBXaXtXtXuXtXaXXXE.~.~.J G d s 8.8.w.w.g.*XIXIXIXIXIXIXIXIX",
"IXIXIXIXIXIXIXIXIXIXIXIXIXIXIXIXIXLXSXsX).U.H.M.H.H.I.K.P.#X3X3XfXJXZXZXCXaXpXaXuXsX^./.J p & @ @ @ y 8.w.!.IXIXIXIXIXIXIXIXIXIX",
"IXIXIXIXIXIXIXIXIXIXIXIXIXIXIXIXIXIXIXIXNX).M.M.H.H.H.I.K.$X1X3X3XkXZXZXCXjXhXuXtXoX~.J p @ @ X @ . e 8.*XIXIXIXIXIXIXIXIXIXIXIX",
"IXIXIXIXIXIXIXIXIXIXIXIXIXIXIXIXIXIXIXIXIXIX).M.A.H.J.G.K.K.#X3XwX3XfXjXjXZXjXkXuX].d p X X X X X . y ^.IXIXIXIXIXIXIXIXIXIXIXIX",
"IXIXIXIXIXIXIXIXIXIXIXIXIXIXIXIXIXIXIXIXIXIX'.M.M.H.H.J.H.$X$X#X3XwX6XfXgXjXjXjXpX`.0.> X X X X X > 8.IXIXIXIXIXIXIXIXIXIXIXIXIX",
"IXIXIXIXIXIXIXIXIXIXIXIXIXIXIXIXIXIXIXIXIXIXIX`.H.M.x.M.H.P.K.#X3X3XwXwX6X6XfXwX7X6XL.4.u 8 + 8 y 8.IXIXIXIXIXIXIXIXIXIXIXIXIXIX",
"IXIXIXIXIXIXIXIXIXIXIXIXIXIXIXIXIXIXIXIXIXIXIX`.A.M.x.l.G.P.P.P.#X#X#X3X3X3X;X%XL.L.f.w.4.m y m 0.IXIXIXIXIXIXIXIXIXIXIXIXIXIXIX",
"IXIXIXIXIXIXIXIXIXIXIXIXIXIXIXIXIXIXIXIXIXIXsX}.A.x.l.l.m.J.$X#XP.K.K.%X$X#X#X3X;X@X%Xj.f.d.8.a.IXIXIXIXIXIXIXIXIXIXIXIXIXIXIXIX",
"IXIXIXIXIXIXIXIXIXIXIXIXIXIXIXIXIXIXIXIXIXIXIXT.C.x.l.l.x.G.P.#X#X$XK.G.k.f.k.d.k.j.j.f.k.k.k.IXIXIXIXIXIXIXIXIXIXIXIXIXIXIXIXIX",
"IXIXIXIXIXIXIXIXIXIXIXIXIXIXIXIXIXIXIXIXIXIXIX;XH.z.;.x.M.G.$X#X$X$X$X$Xj.d.d.4.3.m y 0 A IXIXIXIXIXIXIXIXIXIXIXIXIXIXIXIXIXIXIX",
"IXIXIXIXIXIXIXIXIXIXIXIXIXIXIXIXIXIXIXIXIXHXFX*Xe.x.z.x.M.H.P.#X$X$X%XK.f.d.4.3.q < + # 0 Z IXIXIXIXIXIXIXIXIXIXIXIXIXIXIXIXIXIX",
"IXIXIXIXIXIXIXIXIXIXIXIXIXIXIXIXIXIXIXHXFXcXxXk.G.M.M.M.J.T.P.P.K.L.f.d.4.4.i 8 8 # # # 0 0 z H IXIXIXIXIXIXIXIXIXIXIXIXIXIXIXIX",
"IXIXIXIXIXIXIXIXIXIXIXIXIXIXIXHXHXHXFXmXnXcXbXk.e.U.J.T.P.;X#XK.K.f.d.4.3.v 8 8 8 # # 0 0 9 c x IXIXIXIXIXIXIXIXIXIXIXIXIXIXIXIX",
"IXIXIXIXIXIXIXIXIXIXIXIXHXHXFXFXFXmXmXbXdXcXlXs.7.}.`.1X1X`.;XL.j.f.8.m i q 0 8 # 0 0 0 0 0 l h S IXIXIXIXIXIXIXIXIXIXIXIXIXIXIX",
"IXIXIXIXIXIXIXIXIXIXIXJXFXmXmXmXcXnXnXlXvXcX0Xs.r h.6X6X;X_.<Xj.f.8.3.v v 0 # # 0 q q 9 c 0 0 h N IXIXIXIXIXIXIXIXIXIXIXIXIXIXIX",
"IXIXIXIXIXIXIXIXIXIXyXjXmXnXmXPXmXnXzXxXxXdXqXOXy !.jX,X_._.j.j.d.4.N v 9 0 # q b j j l l l l 0 c IXIXIXIXIXIXIXIXIXIXIXIXIXIXIX",
"IXIXIXIXIXIXIXIXhX5X|.bXmXnXmXPXnXzXzXxXxX0XlX*Xn a.,X,X_._.L.k.V v q q 0 0 z M n b b v k l l 9 w A IXIXIXIXIXIXIXIXIXIXIXIXIXIX",
"IXIXIXIXIXIXIXIXyXY.A.bXbXbXdXvXzXlXlXxXxXlXqXC z e s.,X<Xj.j.N k k h h 0 z B B B N v v k l l 9 c IXIXIXIXIXIXIXIXIXIXIXIXIXIXIX",
"IXIXIXIXIXIXIXIXwXF.A.dXbXxXdXxXlX0XvXxXlXlXOX@ 0 9 0.eX>Xg.p.k k v h c h V B B V N v v v l l 9 c IXIXIXIXIXIXIXIXIXIXIXIXIXIXIX",
"IXIXIXIXIXIXIXIXuXM.z.qXxXvX0X=XqXxXxXlXlXqXx 8 w e 0.Q.g.4.m h z z k 9 n 6.S p.V N M k j j l l w IXIXIXIXIXIXIXIXIXIXIXIXIXIXIX",
"IXIXIXIXIXIXIXIX5Xn.o.=X0X=X=X&XqXxXlXzXlX+Xl Z A z e 7.8.A @ & M x c h V 6.p.V C k x h v j l l c IXIXIXIXIXIXIXIXIXIXIXIXIXIXIX",
"IXIXIXIXIXIXIXIXIXA.{ k.=X+XOXp.+XbXbXzXzXp.B s.G F D p & @ @ c M x h x V 6.6.V k x x x M b j h z IXIXIXIXIXIXIXIXIXIXIXIXIXIXIX",
"IXIXIXIXIXIXIXIXIXT.O.) OXs.p.V OXnXmXbX9Xp.+X+XD F F %   $ c x Z c c S s.6.V M C C C M N M k k x IXIXIXIXIXIXIXIXIXIXIXIXIXIXIX",
"IXIXIXIXIXIXIXIXIX}.;.[ 4.V N h s.FXnXlXqXs.qX=XF F % %   # c c Z z N S p.V N N C C C C V N n z b IXIXIXIXIXIXIXIXIXIXIXIXIXIXIX",
"IXIXIXIXIXIXIXIXIX8Xz.| P i j + s.mXxX9XqX&XqXqX0.* % % @ # # x Z x C S C N k C OXS S S p.V N x M IXIXIXIXIXIXIXIXIXIXIXIXIXIXIX"
};
